<svg width="508" height="1372" viewBox="0 0 508 1372" fill="none" xmlns="http://www.w3.org/2000/svg">
<rect x="8.5" y="703.5" width="491" height="660" rx="31.5" fill="#8CBB51" stroke="black" stroke-width="17"/>
<g filter="url(#filter0_d_1_393)">
<path d="M95 878H402.5V929.5V1013.5L404 1029.5L403.5 1045.5L402.5 1059L400.5 1071.5L398 1081L394 1090L390 1099L385 1108L375 1123L358.5 1139L336 1155L306.5 1168L258.5 1174.5H226L196 1167L177.5 1159.5L160.5 1150.5L139 1135.5L118 1114L107 1093L102.5 1083L99.5 1071.5L96.5 1056.5L95.5 1042.5L95 878Z" fill="#5763AB"/>
<path d="M94.9999 875.5H405.991L405.009 1036H95L94.9999 875.5Z" fill="#5763AB" stroke="black" stroke-width="3"/>
<path d="M405 1037C405 1224.23 95 1217.74 95 1037" stroke="black" stroke-width="3"/>
<path d="M96.5 1033H403.5V1035.5V1038L96.5 1037.5V1033Z" fill="#5763AB"/>
<path d="M133 927.727V770.5H177V964.276L168.302 958.772L168.254 958.741L168.205 958.715L156.788 952.641L133 927.727Z" fill="#5763AB" stroke="black" stroke-width="3"/>
<path d="M327.5 932.568V770.5H371.5V970.231L362.819 964.572L362.771 964.54L362.721 964.513L351.305 958.255L327.5 932.568Z" fill="#5763AB" stroke="black" stroke-width="3"/>
<path d="M219.346 1247V1147.5H279.346V1247V1248.5H280.846H304.484L250.811 1308.29L193.515 1248.5H217.846H219.346V1247Z" fill="#5763AB" stroke="black" stroke-width="3"/>
<path d="M130 877H179L179.5 924L178.5 967.5L166 962.5L152 952.5L131 928L130 877Z" fill="#5763AB"/>
<path d="M324 877H373L373.5 924L373 975.5L358 964L342.5 955.5L324 935V877Z" fill="#5763AB"/>
<path d="M212.485 831H205.071L216.369 798.273H225.286L236.567 831H229.153L220.955 805.751H220.699L212.485 831ZM212.022 818.136H229.536V823.537H212.022V818.136ZM270.131 798.273V831H264.154L249.916 810.402H249.676V831H242.757V798.273H248.829L262.955 818.855H263.243V798.273H270.131ZM289.699 831H278.097V798.273H289.795C293.087 798.273 295.921 798.928 298.296 800.238C300.672 801.538 302.499 803.408 303.777 805.847C305.066 808.287 305.711 811.206 305.711 814.604C305.711 818.013 305.066 820.943 303.777 823.393C302.499 825.844 300.661 827.724 298.264 829.034C295.878 830.345 293.023 831 289.699 831ZM285.017 825.071H289.411C291.457 825.071 293.177 824.709 294.573 823.985C295.979 823.25 297.034 822.115 297.737 820.581C298.451 819.036 298.808 817.044 298.808 814.604C298.808 812.186 298.451 810.21 297.737 808.676C297.034 807.142 295.984 806.012 294.589 805.288C293.193 804.564 291.473 804.201 289.427 804.201H285.017V825.071Z" fill="#5763AB"/>
<path d="M212.485 831V833H213.938L214.387 831.619L212.485 831ZM205.071 831L203.18 830.347L202.264 833H205.071V831ZM216.369 798.273V796.273H214.943L214.478 797.62L216.369 798.273ZM225.286 798.273L227.176 797.621L226.712 796.273H225.286V798.273ZM236.567 831V833H239.372L238.458 830.348L236.567 831ZM229.153 831L227.25 831.618L227.699 833H229.153V831ZM220.955 805.751L222.857 805.134L222.408 803.751H220.955V805.751ZM220.699 805.751V803.751H219.247L218.797 805.133L220.699 805.751ZM212.022 818.136V816.136H210.022V818.136H212.022ZM229.536 818.136H231.536V816.136H229.536V818.136ZM229.536 823.537V825.537H231.536V823.537H229.536ZM212.022 823.537H210.022V825.537H212.022V823.537ZM212.485 829H205.071V833H212.485V829ZM206.961 831.653L218.259 798.925L214.478 797.62L203.18 830.347L206.961 831.653ZM216.369 800.273H225.286V796.273H216.369V800.273ZM223.395 798.925L234.677 831.652L238.458 830.348L227.176 797.621L223.395 798.925ZM236.567 829H229.153V833H236.567V829ZM231.055 830.382L222.857 805.134L219.053 806.369L227.25 831.618L231.055 830.382ZM220.955 803.751H220.699V807.751H220.955V803.751ZM218.797 805.133L210.584 830.381L214.387 831.619L222.601 806.37L218.797 805.133ZM212.022 820.136H229.536V816.136H212.022V820.136ZM227.536 818.136V823.537H231.536V818.136H227.536ZM229.536 821.537H212.022V825.537H229.536V821.537ZM214.022 823.537V818.136H210.022V823.537H214.022ZM270.131 798.273H272.131V796.273H270.131V798.273ZM270.131 831V833H272.131V831H270.131ZM264.154 831L262.509 832.137L263.105 833H264.154V831ZM249.916 810.402L251.561 809.264L250.964 808.402H249.916V810.402ZM249.676 810.402V808.402H247.676V810.402H249.676ZM249.676 831V833H251.676V831H249.676ZM242.757 831H240.757V833H242.757V831ZM242.757 798.273V796.273H240.757V798.273H242.757ZM248.829 798.273L250.478 797.141L249.882 796.273H248.829V798.273ZM262.955 818.855L261.306 819.987L261.902 820.855H262.955V818.855ZM263.243 818.855V820.855H265.243V818.855H263.243ZM263.243 798.273V796.273H261.243V798.273H263.243ZM268.131 798.273V831H272.131V798.273H268.131ZM270.131 829H264.154V833H270.131V829ZM265.799 829.863L251.561 809.264L248.27 811.539L262.509 832.137L265.799 829.863ZM249.916 808.402H249.676V812.402H249.916V808.402ZM247.676 810.402V831H251.676V810.402H247.676ZM249.676 829H242.757V833H249.676V829ZM244.757 831V798.273H240.757V831H244.757ZM242.757 800.273H248.829V796.273H242.757V800.273ZM247.18 799.404L261.306 819.987L264.604 817.723L250.478 797.141L247.18 799.404ZM262.955 820.855H263.243V816.855H262.955V820.855ZM265.243 818.855V798.273H261.243V818.855H265.243ZM263.243 800.273H270.131V796.273H263.243V800.273ZM278.097 831H276.097V833H278.097V831ZM278.097 798.273V796.273H276.097V798.273H278.097ZM298.296 800.238L297.33 801.99L297.336 801.993L298.296 800.238ZM303.777 805.847L302.006 806.776L302.009 806.782L303.777 805.847ZM303.777 823.393L302.007 822.462L302.004 822.468L303.777 823.393ZM298.264 829.034L297.305 827.28L297.302 827.281L298.264 829.034ZM285.017 825.071H283.017V827.071H285.017V825.071ZM294.573 823.985L295.494 825.76L295.499 825.757L294.573 823.985ZM297.737 820.581L295.921 819.742L295.919 819.748L297.737 820.581ZM297.737 808.676L295.919 809.509L295.924 809.519L297.737 808.676ZM294.589 805.288L295.51 803.513V803.513L294.589 805.288ZM285.017 804.201V802.201H283.017V804.201H285.017ZM289.699 829H278.097V833H289.699V829ZM280.097 831V798.273H276.097V831H280.097ZM278.097 800.273H289.795V796.273H278.097V800.273ZM289.795 800.273C292.821 800.273 295.307 800.874 297.33 801.99L299.262 798.487C296.534 796.982 293.353 796.273 289.795 796.273V800.273ZM297.336 801.993C299.36 803.1 300.907 804.679 302.006 806.776L305.549 804.919C304.091 802.136 301.984 799.976 299.256 798.484L297.336 801.993ZM302.009 806.782C303.115 808.874 303.711 811.457 303.711 814.604H307.711C307.711 810.955 307.018 807.7 305.546 804.913L302.009 806.782ZM303.711 814.604C303.711 817.763 303.114 820.358 302.007 822.462L305.547 824.325C307.019 821.528 307.711 818.264 307.711 814.604H303.711ZM302.004 822.468C300.907 824.572 299.35 826.161 297.305 827.28L299.224 830.789C301.972 829.287 304.091 827.116 305.551 824.319L302.004 822.468ZM297.302 827.281C295.269 828.398 292.76 829 289.699 829V833C293.286 833 296.487 832.292 299.227 830.788L297.302 827.281ZM285.017 827.071H289.411V823.071H285.017V827.071ZM289.411 827.071C291.684 827.071 293.741 826.67 295.494 825.76L293.651 822.21C292.613 822.749 291.229 823.071 289.411 823.071V827.071ZM295.499 825.757C297.325 824.803 298.68 823.324 299.555 821.414L295.919 819.748C295.388 820.906 294.634 821.696 293.646 822.212L295.499 825.757ZM299.553 821.42C300.429 819.524 300.808 817.217 300.808 814.604H296.808C296.808 816.871 296.473 818.549 295.921 819.742L299.553 821.42ZM300.808 814.604C300.808 812.011 300.428 809.719 299.55 807.832L295.924 809.519C296.473 810.701 296.808 812.361 296.808 814.604H300.808ZM299.555 807.842C298.681 805.935 297.331 804.458 295.51 803.513L293.667 807.063C294.638 807.567 295.387 808.348 295.919 809.509L299.555 807.842ZM295.51 803.513C293.757 802.603 291.7 802.201 289.427 802.201V806.201C291.245 806.201 292.629 806.524 293.667 807.063L295.51 803.513ZM289.427 802.201H285.017V806.201H289.427V802.201ZM283.017 804.201V825.071H287.017V804.201H283.017Z" fill="black"/>
<path d="M250.026 1119C234.756 1118.94 221.617 1115.18 210.609 1107.72C199.659 1100.26 191.225 1089.46 185.307 1075.32C179.447 1061.17 176.547 1044.15 176.607 1024.27C176.607 1004.44 179.536 987.544 185.396 973.576C191.314 959.608 199.748 948.984 210.697 941.705C221.706 934.366 234.816 930.696 250.026 930.696C265.237 930.696 278.317 934.366 289.266 941.705C300.275 949.044 308.738 959.697 314.657 973.665C320.576 987.573 323.505 1004.44 323.446 1024.27C323.446 1044.21 320.487 1061.26 314.568 1075.4C308.709 1089.55 300.304 1100.35 289.355 1107.81C278.406 1115.27 265.296 1119 250.026 1119ZM250.026 1087.12C260.443 1087.12 268.759 1081.89 274.973 1071.41C281.188 1060.93 284.265 1045.22 284.206 1024.27C284.206 1010.48 282.786 998.996 279.945 989.822C277.163 980.649 273.197 973.754 268.048 969.137C262.958 964.521 256.951 962.212 250.026 962.212C239.669 962.212 231.383 967.391 225.168 977.749C218.954 988.106 215.817 1003.61 215.758 1024.27C215.758 1038.24 217.149 1049.9 219.93 1059.25C222.771 1068.54 226.766 1075.52 231.915 1080.2C237.065 1084.82 243.102 1087.12 250.026 1087.12Z" fill="black"/>
<path d="M250.026 1119L250.007 1123.99L250.017 1124H250.026V1119ZM210.609 1107.72L207.794 1111.85L207.804 1111.86L210.609 1107.72ZM185.307 1075.32L180.687 1077.23L180.691 1077.24L180.694 1077.25L185.307 1075.32ZM176.607 1024.27L181.607 1024.28L181.607 1024.28V1024.27H176.607ZM185.396 973.576L180.792 971.625L180.788 971.634L180.785 971.642L185.396 973.576ZM210.697 941.705L213.466 945.868L213.471 945.865L210.697 941.705ZM289.266 941.705L286.482 945.858L286.493 945.865L289.266 941.705ZM314.657 973.665L310.053 975.616L310.056 975.623L314.657 973.665ZM323.446 1024.27L318.446 1024.25L318.446 1024.26V1024.27H323.446ZM314.568 1075.4L309.956 1073.47L309.952 1073.48L309.949 1073.49L314.568 1075.4ZM289.355 1107.81L292.17 1111.94L289.355 1107.81ZM274.973 1071.41L279.273 1073.96H279.273L274.973 1071.41ZM284.206 1024.27H279.206L279.206 1024.28L284.206 1024.27ZM279.945 989.822L275.16 991.273L275.164 991.287L275.168 991.302L279.945 989.822ZM268.048 969.137L264.689 972.841L264.7 972.85L264.711 972.86L268.048 969.137ZM225.168 977.749L220.881 975.176L225.168 977.749ZM215.758 1024.27L210.758 1024.25L210.758 1024.26V1024.27H215.758ZM219.93 1059.25L215.138 1060.67L215.143 1060.69L215.149 1060.71L219.93 1059.25ZM231.915 1080.2L228.554 1083.9L228.566 1083.91L228.578 1083.92L231.915 1080.2ZM250.046 1114C235.617 1113.94 223.482 1110.4 213.413 1103.58L207.804 1111.86C219.752 1119.95 233.896 1123.93 250.007 1123.99L250.046 1114ZM213.423 1103.59C203.394 1096.76 195.525 1086.78 189.919 1073.39L180.694 1077.25C186.926 1092.14 195.925 1103.77 207.794 1111.85L213.423 1103.59ZM189.926 1073.4C184.383 1060.02 181.549 1043.7 181.607 1024.28L171.607 1024.25C171.546 1044.61 174.511 1062.32 180.687 1077.23L189.926 1073.4ZM181.607 1024.27C181.607 1004.91 184.47 988.708 190.006 975.51L180.785 971.642C174.602 986.38 171.607 1003.97 171.607 1024.27H181.607ZM189.999 975.527C195.596 962.318 203.451 952.526 213.466 945.868L207.929 937.541C196.045 945.442 187.032 956.898 180.792 971.625L189.999 975.527ZM213.471 945.865C223.54 939.152 235.651 935.696 250.026 935.696V925.696C233.98 925.696 219.872 929.579 207.924 937.544L213.471 945.865ZM250.026 935.696C264.402 935.696 276.478 939.152 286.482 945.858L292.05 937.551C280.156 929.579 266.072 925.696 250.026 925.696V935.696ZM286.493 945.865C296.574 952.586 304.458 962.412 310.053 975.616L319.261 971.714C313.018 956.982 303.976 945.501 292.04 937.544L286.493 945.865ZM310.056 975.623C315.641 988.746 318.504 1004.9 318.446 1024.25L328.446 1024.28C328.507 1003.98 325.511 986.401 319.258 971.707L310.056 975.623ZM318.446 1024.27C318.446 1043.74 315.554 1060.09 309.956 1073.47L319.181 1077.33C325.419 1062.42 328.446 1044.69 328.446 1024.27H318.446ZM309.949 1073.49C304.403 1086.88 296.566 1096.85 286.541 1103.68L292.17 1111.94C304.043 1103.85 313.015 1092.22 319.188 1077.32L309.949 1073.49ZM286.541 1103.68C276.543 1110.49 264.45 1114 250.026 1114V1124C266.142 1124 280.269 1120.05 292.17 1111.94L286.541 1103.68ZM250.026 1092.12C262.536 1092.12 272.339 1085.65 279.273 1073.96L270.673 1068.86C265.178 1078.12 258.35 1082.12 250.026 1082.12V1092.12ZM279.273 1073.96C286.171 1062.33 289.266 1045.54 289.206 1024.25L279.206 1024.28C279.264 1044.9 276.204 1059.54 270.673 1068.86L279.273 1073.96ZM289.206 1024.27C289.206 1010.18 287.759 998.155 284.721 988.343L275.168 991.302C277.812 999.838 279.206 1010.78 279.206 1024.27H289.206ZM284.729 988.372C281.78 978.646 277.431 970.833 271.386 965.414L264.711 972.86C268.964 976.674 272.545 982.651 275.16 991.273L284.729 988.372ZM271.407 965.433C265.39 959.976 258.182 957.212 250.026 957.212V967.212C255.72 967.212 260.527 969.066 264.689 972.841L271.407 965.433ZM250.026 957.212C237.593 957.212 227.821 963.609 220.881 975.176L229.456 980.321C234.944 971.174 241.745 967.212 250.026 967.212V957.212ZM220.881 975.176C213.98 986.677 210.818 1003.26 210.758 1024.25L220.758 1024.28C220.816 1003.97 223.928 989.535 229.456 980.321L220.881 975.176ZM210.758 1024.27C210.758 1038.53 212.173 1050.71 215.138 1060.67L224.723 1057.82C222.124 1049.08 220.758 1037.94 220.758 1024.27H210.758ZM215.149 1060.71C218.153 1070.54 222.525 1078.43 228.554 1083.9L235.277 1076.5C231.008 1072.62 227.389 1066.54 224.712 1057.79L215.149 1060.71ZM228.578 1083.92C234.645 1089.36 241.871 1092.12 250.026 1092.12V1082.12C244.332 1082.12 239.484 1080.27 235.253 1076.48L228.578 1083.92Z" fill="white"/>
</g>
<path d="M216 1144H282.649V1170.95L290 1169.42L283.139 1170.95L280.5 1171.5H277.5L276.278 1171.97L270.887 1174L225.311 1171.97L221.5 1170.5H218L216 1170V1144Z" fill="#5763AB"/>
<g filter="url(#filter1_d_1_393)">
<path d="M39.274 730.731H95.4617V740.141V755.49L95.7358 758.322L95.6444 761.337L95.4617 763.804L95.0049 766.179L93.9085 769.468L93.1776 771.204L92.264 772.757L90.4368 775.498L87.4218 778.422L83.3105 781.346L77.9202 783.721L69.1494 784.909H63.2109L57.7291 783.538L54.3487 782.168L51.2424 780.523L47.3139 777.782L43.4766 773.854L41.4667 770.017L40.6444 768.189L40.0962 766.088L39.5481 763.347L39.3653 760.789L39.274 730.731Z" fill="#5763AB"/>
<path d="M39.5 731.5H95.5V757.5H39.5V731.5Z" fill="#5763AB" stroke="black" stroke-width="3"/>
<path d="M95.5 759C95.5 793.212 39.4999 792.026 39.4999 759" stroke="black" stroke-width="3"/>
<rect x="41" y="756" width="53" height="3" fill="#5763AB"/>
<path d="M67.7642 771.639C65.321 771.63 63.2188 771.028 61.4574 769.835C59.7055 768.642 58.3561 766.914 57.4091 764.651C56.4716 762.387 56.0076 759.665 56.017 756.483C56.017 753.311 56.4858 750.607 57.4233 748.372C58.3703 746.137 59.7197 744.437 61.4716 743.273C63.233 742.098 65.3305 741.511 67.7642 741.511C70.1979 741.511 72.2907 742.098 74.0426 743.273C75.804 744.447 77.1581 746.152 78.1051 748.386C79.0521 750.612 79.5208 753.311 79.5114 756.483C79.5114 759.674 79.0379 762.402 78.0909 764.665C77.1534 766.928 75.8087 768.656 74.0568 769.849C72.3049 771.043 70.2074 771.639 67.7642 771.639ZM67.7642 766.54C69.4309 766.54 70.7614 765.702 71.7557 764.026C72.75 762.349 73.2424 759.835 73.233 756.483C73.233 754.277 73.0057 752.439 72.5511 750.972C72.1061 749.504 71.4716 748.401 70.6477 747.662C69.8333 746.923 68.8722 746.554 67.7642 746.554C66.107 746.554 64.7813 747.383 63.7869 749.04C62.7926 750.697 62.2907 753.178 62.2812 756.483C62.2812 758.718 62.5038 760.583 62.9489 762.08C63.4034 763.566 64.0426 764.684 64.8665 765.432C65.6903 766.17 66.6562 766.54 67.7642 766.54Z" fill="white"/>
</g>
<g filter="url(#filter2_d_1_393)">
<path d="M27.274 1.73093H83.4617V11.1412V26.4901L83.7358 29.3223L83.6444 32.3372L83.4617 34.804L83.0049 37.1794L81.9085 40.4685L81.1776 42.2043L80.264 43.7575L78.4368 46.4984L75.4218 49.422L71.3105 52.3455L65.9202 54.721L57.1494 55.9087H51.2109L45.7291 54.5382L42.3487 53.1678L39.2424 51.5233L35.3139 48.7824L31.4766 44.8538L29.4667 41.0166L28.6444 39.1894L28.0962 37.0881L27.5481 34.3472L27.3653 31.7891L27.274 1.73093Z" fill="#5763AB"/>
<path d="M27.5 2.5H83.5V28.5H27.5V2.5Z" fill="#5763AB" stroke="black" stroke-width="3"/>
<path d="M83.5 30C83.5 64.2116 27.4999 63.0257 27.4999 30" stroke="black" stroke-width="3"/>
<rect x="29" y="27" width="53" height="3" fill="#5763AB"/>
<path d="M49.0518 17.0513C49.0233 14.27 51.2701 12 54.0515 12H58C60.7614 12 63 14.2386 63 17V38C63 40.7614 60.7614 43 58 43H54.2669C51.5255 43 49.2953 40.7926 49.2672 38.0513L49.0518 17.0513Z" fill="white"/>
</g>
<g filter="url(#filter3_d_1_393)">
<path d="M477.726 1333.18H421.538V1323.77V1308.42L421.264 1305.59L421.356 1302.57L421.538 1300.1L421.995 1297.73L423.091 1294.44L423.822 1292.7L424.736 1291.15L426.563 1288.41L429.578 1285.49L433.689 1282.56L439.08 1280.19L447.851 1279H453.789L459.271 1280.37L462.651 1281.74L465.758 1283.39L469.686 1286.13L473.523 1290.05L475.533 1293.89L476.356 1295.72L476.904 1297.82L477.452 1300.56L477.635 1303.12L477.726 1333.18Z" fill="#5763AB"/>
<path d="M477.5 1332.41H421.5V1306.41H477.5V1332.41Z" fill="#5763AB" stroke="black" stroke-width="3"/>
<path d="M421.5 1304.91C421.5 1270.7 477.5 1271.88 477.5 1304.91" stroke="black" stroke-width="3"/>
<rect x="476" y="1307.91" width="53" height="3" transform="rotate(-180 476 1307.91)" fill="#5763AB"/>
<path d="M449.236 1292.27C451.679 1292.28 453.781 1292.88 455.543 1294.07C457.295 1295.27 458.644 1296.99 459.591 1299.26C460.528 1301.52 460.992 1304.24 460.983 1307.43C460.983 1310.6 460.514 1313.3 459.577 1315.54C458.63 1317.77 457.28 1319.47 455.528 1320.64C453.767 1321.81 451.67 1322.4 449.236 1322.4C446.802 1322.4 444.709 1321.81 442.957 1320.64C441.196 1319.46 439.842 1317.76 438.895 1315.52C437.948 1313.3 437.479 1310.6 437.489 1307.43C437.489 1304.23 437.962 1301.51 438.909 1299.24C439.847 1296.98 441.191 1295.25 442.943 1294.06C444.695 1292.87 446.793 1292.27 449.236 1292.27ZM449.236 1297.37C447.569 1297.37 446.239 1298.21 445.244 1299.88C444.25 1301.56 443.758 1304.07 443.767 1307.43C443.767 1309.63 443.994 1311.47 444.449 1312.94C444.894 1314.4 445.528 1315.51 446.352 1316.25C447.167 1316.99 448.128 1317.35 449.236 1317.35C450.893 1317.35 452.219 1316.53 453.213 1314.87C454.207 1313.21 454.709 1310.73 454.719 1307.43C454.719 1305.19 454.496 1303.33 454.051 1301.83C453.597 1300.34 452.957 1299.22 452.134 1298.48C451.31 1297.74 450.344 1297.37 449.236 1297.37Z" fill="white"/>
</g>
<defs>
<filter id="filter0_d_1_393" x="87.4999" y="769" width="322" height="549.5" filterUnits="userSpaceOnUse" color-interpolation-filters="sRGB">
<feFlood flood-opacity="0" result="BackgroundImageFix"/>
<feColorMatrix in="SourceAlpha" type="matrix" values="0 0 0 0 0 0 0 0 0 0 0 0 0 0 0 0 0 0 127 0" result="hardAlpha"/>
<feOffset dx="-2" dy="4"/>
<feGaussianBlur stdDeviation="2"/>
<feComposite in2="hardAlpha" operator="out"/>
<feColorMatrix type="matrix" values="0 0 0 0 0 0 0 0 0 0 0 0 0 0 0 0 0 0 0.25 0"/>
<feBlend mode="normal" in2="BackgroundImageFix" result="effect1_dropShadow_1_393"/>
<feBlend mode="normal" in="SourceGraphic" in2="effect1_dropShadow_1_393" result="shape"/>
</filter>
<filter id="filter1_d_1_393" x="31.9999" y="730" width="67.0001" height="63.7159" filterUnits="userSpaceOnUse" color-interpolation-filters="sRGB">
<feFlood flood-opacity="0" result="BackgroundImageFix"/>
<feColorMatrix in="SourceAlpha" type="matrix" values="0 0 0 0 0 0 0 0 0 0 0 0 0 0 0 0 0 0 127 0" result="hardAlpha"/>
<feOffset dx="-2" dy="4"/>
<feGaussianBlur stdDeviation="2"/>
<feComposite in2="hardAlpha" operator="out"/>
<feColorMatrix type="matrix" values="0 0 0 0 0 0 0 0 0 0 0 0 0 0 0 0 0 0 0.25 0"/>
<feBlend mode="normal" in2="BackgroundImageFix" result="effect1_dropShadow_1_393"/>
<feBlend mode="normal" in="SourceGraphic" in2="effect1_dropShadow_1_393" result="shape"/>
</filter>
<filter id="filter2_d_1_393" x="19.9999" y="0" width="67.0001" height="63.7159" filterUnits="userSpaceOnUse" color-interpolation-filters="sRGB">
<feFlood flood-opacity="0" result="BackgroundImageFix"/>
<feColorMatrix in="SourceAlpha" type="matrix" values="0 0 0 0 0 0 0 0 0 0 0 0 0 0 0 0 0 0 127 0" result="hardAlpha"/>
<feOffset dx="-2" dy="3"/>
<feGaussianBlur stdDeviation="2"/>
<feComposite in2="hardAlpha" operator="out"/>
<feColorMatrix type="matrix" values="0 0 0 0 0 0 0 0 0 0 0 0 0 0 0 0 0 0 0.25 0"/>
<feBlend mode="normal" in2="BackgroundImageFix" result="effect1_dropShadow_1_393"/>
<feBlend mode="normal" in="SourceGraphic" in2="effect1_dropShadow_1_393" result="shape"/>
</filter>
<filter id="filter3_d_1_393" x="414" y="1278.19" width="67" height="63.7159" filterUnits="userSpaceOnUse" color-interpolation-filters="sRGB">
<feFlood flood-opacity="0" result="BackgroundImageFix"/>
<feColorMatrix in="SourceAlpha" type="matrix" values="0 0 0 0 0 0 0 0 0 0 0 0 0 0 0 0 0 0 127 0" result="hardAlpha"/>
<feOffset dx="-2" dy="4"/>
<feGaussianBlur stdDeviation="2"/>
<feComposite in2="hardAlpha" operator="out"/>
<feColorMatrix type="matrix" values="0 0 0 0 0 0 0 0 0 0 0 0 0 0 0 0 0 0 0.25 0"/>
<feBlend mode="normal" in2="BackgroundImageFix" result="effect1_dropShadow_1_393"/>
<feBlend mode="normal" in="SourceGraphic" in2="effect1_dropShadow_1_393" result="shape"/>
</filter>
</defs>
</svg>
