<svg width="508" height="677" viewBox="0 0 508 677" fill="none" xmlns="http://www.w3.org/2000/svg">
<rect x="8.5" y="8.5" width="491" height="660" rx="31.5" fill="#8CBB51" stroke="black" stroke-width="17"/>
<g filter="url(#filter0_d_1_392)">
<path d="M95 183H402.5V234.5V318.5L404 334L403.5 350.5L402.5 364L400 377L394 395L390 404.5L385 413L375 428L358.5 444L336 460L306.5 473L258.5 479.5H226L196 472L177.5 464.5L160.5 455.5L139 440.5L118 419L107 398L102.5 388L99.5 376.5L96.5 361.5L95.5 347.5L95 183Z" fill="#5763AB"/>
<path d="M94.9999 180.5H405.991L405.009 341H95L94.9999 180.5Z" fill="#5763AB" stroke="black" stroke-width="3"/>
<path d="M405 342C405 529.231 95 522.74 95 342" stroke="black" stroke-width="3"/>
<path d="M96.5 338H403.5V340.5V343L96.5 342.5V338Z" fill="#5763AB"/>
<path d="M133 232.727V75.5H177V269.276L168.302 263.772L168.254 263.741L168.205 263.715L156.788 257.641L133 232.727Z" fill="#5763AB" stroke="black" stroke-width="3"/>
<path d="M327.5 237.568V75.5H371.5V275.231L362.819 269.572L362.771 269.54L362.721 269.513L351.305 263.255L327.5 237.568Z" fill="#5763AB" stroke="black" stroke-width="3"/>
<path d="M219.346 552V452.5H279.346V552V553.5H280.846H304.484L250.811 613.294L193.515 553.5H217.846H219.346V552Z" fill="#5763AB" stroke="black" stroke-width="3"/>
<path d="M130 182H179L179.5 229L178.5 272.5L166 267.5L152 257.5L131 233L130 182Z" fill="#5763AB"/>
<path d="M324 182H373L373.5 229L373 280.5L358 269L342.5 260.5L324 240V182Z" fill="#5763AB"/>
<rect x="215.5" y="234.5" width="66" height="208" rx="2.5" fill="black" stroke="white" stroke-width="5"/>
<path d="M212.485 136H205.071L216.369 103.273H225.286L236.567 136H229.153L220.955 110.751H220.699L212.485 136ZM212.022 123.136H229.536V128.537H212.022V123.136ZM270.131 103.273V136H264.154L249.916 115.402H249.676V136H242.757V103.273H248.829L262.955 123.855H263.243V103.273H270.131ZM289.699 136H278.097V103.273H289.795C293.087 103.273 295.921 103.928 298.296 105.238C300.672 106.538 302.499 108.408 303.777 110.847C305.066 113.287 305.711 116.206 305.711 119.604C305.711 123.013 305.066 125.943 303.777 128.393C302.499 130.844 300.661 132.724 298.264 134.034C295.878 135.345 293.023 136 289.699 136ZM285.017 130.071H289.411C291.457 130.071 293.177 129.709 294.573 128.985C295.979 128.25 297.034 127.115 297.737 125.581C298.451 124.036 298.808 122.044 298.808 119.604C298.808 117.186 298.451 115.21 297.737 113.676C297.034 112.142 295.984 111.012 294.589 110.288C293.193 109.564 291.473 109.201 289.427 109.201H285.017V130.071Z" fill="#5763AB"/>
<path d="M212.485 136V138H213.938L214.387 136.619L212.485 136ZM205.071 136L203.18 135.347L202.264 138H205.071V136ZM216.369 103.273V101.273H214.943L214.478 102.62L216.369 103.273ZM225.286 103.273L227.176 102.621L226.712 101.273H225.286V103.273ZM236.567 136V138H239.372L238.458 135.348L236.567 136ZM229.153 136L227.25 136.618L227.699 138H229.153V136ZM220.955 110.751L222.857 110.134L222.408 108.751H220.955V110.751ZM220.699 110.751V108.751H219.247L218.797 110.133L220.699 110.751ZM212.022 123.136V121.136H210.022V123.136H212.022ZM229.536 123.136H231.536V121.136H229.536V123.136ZM229.536 128.537V130.537H231.536V128.537H229.536ZM212.022 128.537H210.022V130.537H212.022V128.537ZM212.485 134H205.071V138H212.485V134ZM206.961 136.653L218.259 103.925L214.478 102.62L203.18 135.347L206.961 136.653ZM216.369 105.273H225.286V101.273H216.369V105.273ZM223.395 103.925L234.677 136.652L238.458 135.348L227.176 102.621L223.395 103.925ZM236.567 134H229.153V138H236.567V134ZM231.055 135.382L222.857 110.134L219.053 111.369L227.25 136.618L231.055 135.382ZM220.955 108.751H220.699V112.751H220.955V108.751ZM218.797 110.133L210.584 135.381L214.387 136.619L222.601 111.37L218.797 110.133ZM212.022 125.136H229.536V121.136H212.022V125.136ZM227.536 123.136V128.537H231.536V123.136H227.536ZM229.536 126.537H212.022V130.537H229.536V126.537ZM214.022 128.537V123.136H210.022V128.537H214.022ZM270.131 103.273H272.131V101.273H270.131V103.273ZM270.131 136V138H272.131V136H270.131ZM264.154 136L262.509 137.137L263.105 138H264.154V136ZM249.916 115.402L251.561 114.264L250.964 113.402H249.916V115.402ZM249.676 115.402V113.402H247.676V115.402H249.676ZM249.676 136V138H251.676V136H249.676ZM242.757 136H240.757V138H242.757V136ZM242.757 103.273V101.273H240.757V103.273H242.757ZM248.829 103.273L250.478 102.141L249.882 101.273H248.829V103.273ZM262.955 123.855L261.306 124.987L261.902 125.855H262.955V123.855ZM263.243 123.855V125.855H265.243V123.855H263.243ZM263.243 103.273V101.273H261.243V103.273H263.243ZM268.131 103.273V136H272.131V103.273H268.131ZM270.131 134H264.154V138H270.131V134ZM265.799 134.863L251.561 114.264L248.27 116.539L262.509 137.137L265.799 134.863ZM249.916 113.402H249.676V117.402H249.916V113.402ZM247.676 115.402V136H251.676V115.402H247.676ZM249.676 134H242.757V138H249.676V134ZM244.757 136V103.273H240.757V136H244.757ZM242.757 105.273H248.829V101.273H242.757V105.273ZM247.18 104.404L261.306 124.987L264.604 122.723L250.478 102.141L247.18 104.404ZM262.955 125.855H263.243V121.855H262.955V125.855ZM265.243 123.855V103.273H261.243V123.855H265.243ZM263.243 105.273H270.131V101.273H263.243V105.273ZM278.097 136H276.097V138H278.097V136ZM278.097 103.273V101.273H276.097V103.273H278.097ZM298.296 105.238L297.33 106.99L297.336 106.993L298.296 105.238ZM303.777 110.847L302.006 111.776L302.009 111.782L303.777 110.847ZM303.777 128.393L302.007 127.462L302.004 127.468L303.777 128.393ZM298.264 134.034L297.305 132.28L297.302 132.281L298.264 134.034ZM285.017 130.071H283.017V132.071H285.017V130.071ZM294.573 128.985L295.494 130.76L295.499 130.757L294.573 128.985ZM297.737 125.581L295.921 124.742L295.919 124.748L297.737 125.581ZM297.737 113.676L295.919 114.509L295.924 114.519L297.737 113.676ZM294.589 110.288L295.51 108.513V108.513L294.589 110.288ZM285.017 109.201V107.201H283.017V109.201H285.017ZM289.699 134H278.097V138H289.699V134ZM280.097 136V103.273H276.097V136H280.097ZM278.097 105.273H289.795V101.273H278.097V105.273ZM289.795 105.273C292.821 105.273 295.307 105.874 297.33 106.99L299.262 103.487C296.534 101.982 293.353 101.273 289.795 101.273V105.273ZM297.336 106.993C299.36 108.1 300.907 109.679 302.006 111.776L305.549 109.919C304.091 107.136 301.984 104.976 299.256 103.484L297.336 106.993ZM302.009 111.782C303.115 113.874 303.711 116.457 303.711 119.604H307.711C307.711 115.955 307.018 112.7 305.546 109.913L302.009 111.782ZM303.711 119.604C303.711 122.763 303.114 125.358 302.007 127.462L305.547 129.325C307.019 126.528 307.711 123.264 307.711 119.604H303.711ZM302.004 127.468C300.907 129.572 299.35 131.161 297.305 132.28L299.224 135.789C301.972 134.287 304.091 132.116 305.551 129.319L302.004 127.468ZM297.302 132.281C295.269 133.398 292.76 134 289.699 134V138C293.286 138 296.487 137.292 299.227 135.788L297.302 132.281ZM285.017 132.071H289.411V128.071H285.017V132.071ZM289.411 132.071C291.684 132.071 293.741 131.67 295.494 130.76L293.651 127.21C292.613 127.749 291.229 128.071 289.411 128.071V132.071ZM295.499 130.757C297.325 129.803 298.68 128.324 299.555 126.414L295.919 124.748C295.388 125.906 294.634 126.696 293.646 127.212L295.499 130.757ZM299.553 126.42C300.429 124.524 300.808 122.217 300.808 119.604H296.808C296.808 121.871 296.473 123.549 295.921 124.742L299.553 126.42ZM300.808 119.604C300.808 117.011 300.428 114.719 299.55 112.832L295.924 114.519C296.473 115.701 296.808 117.361 296.808 119.604H300.808ZM299.555 112.842C298.681 110.935 297.331 109.458 295.51 108.513L293.667 112.063C294.638 112.567 295.387 113.348 295.919 114.509L299.555 112.842ZM295.51 108.513C293.757 107.603 291.7 107.201 289.427 107.201V111.201C291.245 111.201 292.629 111.524 293.667 112.063L295.51 108.513ZM289.427 107.201H285.017V111.201H289.427V107.201ZM283.017 109.201V130.071H287.017V109.201H283.017Z" fill="black"/>
</g>
<path d="M216 449H282.649V475.949L290 474.424L283.139 475.949L280.5 476.5H277.5L276.278 476.966L270.887 479L225.311 476.966L221.5 475.5H218L216 475V449Z" fill="#5763AB"/>
<g filter="url(#filter1_d_1_392)">
<path d="M471.726 641.178H415.538V631.767V616.419L415.264 613.586L415.356 610.571L415.538 608.105L415.995 605.729L417.091 602.44L417.822 600.704L418.736 599.151L420.563 596.41L423.578 593.487L427.689 590.563L433.08 588.188L441.851 587H447.789L453.271 588.37L456.651 589.741L459.758 591.385L463.686 594.126L467.523 598.055L469.533 601.892L470.356 603.719L470.904 605.821L471.452 608.561L471.635 611.12L471.726 641.178Z" fill="#5763AB"/>
<path d="M471.5 640.409H415.5V614.409H471.5V640.409Z" fill="#5763AB" stroke="black" stroke-width="3"/>
<path d="M415.5 612.909C415.5 578.697 471.5 579.883 471.5 612.909" stroke="black" stroke-width="3"/>
<rect x="470" y="615.909" width="53" height="3" transform="rotate(-180 470 615.909)" fill="#5763AB"/>
<path d="M449.948 625.857C449.977 628.639 447.73 630.909 444.948 630.909H441C438.239 630.909 436 628.67 436 625.909V604.909C436 602.147 438.239 599.909 441 599.909H444.733C447.475 599.909 449.705 602.116 449.733 604.857L449.948 625.857Z" fill="white"/>
</g>
<defs>
<filter id="filter0_d_1_392" x="87.4999" y="74" width="322" height="549.5" filterUnits="userSpaceOnUse" color-interpolation-filters="sRGB">
<feFlood flood-opacity="0" result="BackgroundImageFix"/>
<feColorMatrix in="SourceAlpha" type="matrix" values="0 0 0 0 0 0 0 0 0 0 0 0 0 0 0 0 0 0 127 0" result="hardAlpha"/>
<feOffset dx="-2" dy="4"/>
<feGaussianBlur stdDeviation="2"/>
<feComposite in2="hardAlpha" operator="out"/>
<feColorMatrix type="matrix" values="0 0 0 0 0 0 0 0 0 0 0 0 0 0 0 0 0 0 0.25 0"/>
<feBlend mode="normal" in2="BackgroundImageFix" result="effect1_dropShadow_1_392"/>
<feBlend mode="normal" in="SourceGraphic" in2="effect1_dropShadow_1_392" result="shape"/>
</filter>
<filter id="filter1_d_1_392" x="408" y="585.193" width="67" height="63.716" filterUnits="userSpaceOnUse" color-interpolation-filters="sRGB">
<feFlood flood-opacity="0" result="BackgroundImageFix"/>
<feColorMatrix in="SourceAlpha" type="matrix" values="0 0 0 0 0 0 0 0 0 0 0 0 0 0 0 0 0 0 127 0" result="hardAlpha"/>
<feOffset dx="-2" dy="3"/>
<feGaussianBlur stdDeviation="2"/>
<feComposite in2="hardAlpha" operator="out"/>
<feColorMatrix type="matrix" values="0 0 0 0 0 0 0 0 0 0 0 0 0 0 0 0 0 0 0.25 0"/>
<feBlend mode="normal" in2="BackgroundImageFix" result="effect1_dropShadow_1_392"/>
<feBlend mode="normal" in="SourceGraphic" in2="effect1_dropShadow_1_392" result="shape"/>
</filter>
</defs>
</svg>
