<svg width="508" height="677" viewBox="0 0 508 677" fill="none" xmlns="http://www.w3.org/2000/svg">
<rect x="499.5" y="668.5" width="491" height="660" rx="31.5" transform="rotate(-180 499.5 668.5)" fill="#5763AB" stroke="black" stroke-width="17"/>
<rect x="470.5" y="644.5" width="437" height="297" rx="38.5" transform="rotate(-180 470.5 644.5)" fill="black" stroke="white" stroke-width="3"/>
<path d="M252.651 389.526C269.753 389.592 284.469 393.801 296.798 402.153C309.062 410.506 318.508 422.603 325.136 438.446C331.699 454.289 334.947 473.347 334.881 495.619C334.881 517.826 331.599 536.751 325.037 552.395C318.408 568.039 308.962 579.938 296.699 588.091C284.369 596.311 269.687 600.42 252.651 600.42C235.615 600.42 220.965 596.311 208.702 588.091C196.372 579.871 186.893 567.939 180.264 552.295C173.635 536.718 170.354 517.826 170.42 495.619C170.42 473.28 173.735 454.189 180.364 438.347C186.926 422.504 196.339 410.406 208.602 402.054C220.866 393.702 235.548 389.526 252.651 389.526ZM252.651 425.222C240.984 425.222 231.67 431.088 224.71 442.821C217.75 454.554 214.303 472.153 214.369 495.619C214.369 511.064 215.96 523.924 219.142 534.199C222.258 544.473 226.699 552.196 232.466 557.366C238.167 562.537 244.895 565.122 252.651 565.122C264.251 565.122 273.531 559.322 280.491 547.722C287.452 536.121 290.965 518.754 291.031 495.619C291.031 479.975 289.473 466.917 286.358 456.443C283.176 446.036 278.702 438.214 272.935 432.977C267.168 427.807 260.406 425.222 252.651 425.222Z" fill="white"/>
<path d="M252.651 389.526L252.666 385.526L252.658 385.526H252.651V389.526ZM296.798 402.153L299.05 398.847L299.042 398.842L296.798 402.153ZM325.136 438.446L328.832 436.915L328.829 436.909L328.826 436.902L325.136 438.446ZM334.881 495.619L330.881 495.607V495.619H334.881ZM325.037 552.395L328.72 553.955L328.723 553.949L328.726 553.942L325.037 552.395ZM296.699 588.091L294.484 584.76L294.48 584.763L296.699 588.091ZM208.702 588.091L210.929 584.768L210.921 584.763L208.702 588.091ZM180.264 552.295L183.947 550.735L183.945 550.729L180.264 552.295ZM170.42 495.619L174.42 495.631V495.619H170.42ZM180.364 438.347L184.054 439.891L184.056 439.884L184.059 439.877L180.364 438.347ZM208.602 402.054L206.351 398.748L208.602 402.054ZM224.71 442.821L221.27 440.78L224.71 442.821ZM214.369 495.619H218.369L218.369 495.608L214.369 495.619ZM219.142 534.199L222.97 533.038L222.967 533.027L222.963 533.016L219.142 534.199ZM232.466 557.366L235.153 554.404L235.145 554.396L235.136 554.388L232.466 557.366ZM280.491 547.722L283.921 549.78V549.78L280.491 547.722ZM291.031 495.619L295.031 495.631V495.619H291.031ZM286.358 456.443L290.192 455.303L290.188 455.288L290.183 455.274L286.358 456.443ZM272.935 432.977L275.624 430.016L275.614 430.007L275.605 429.999L272.935 432.977ZM252.635 393.526C269.064 393.589 282.977 397.622 294.555 405.465L299.042 398.842C285.961 389.98 270.441 385.594 252.666 385.526L252.635 393.526ZM294.547 405.459C306.074 413.311 315.068 424.746 321.446 439.99L328.826 436.902C321.947 420.46 312.049 407.701 299.05 398.847L294.547 405.459ZM321.441 439.977C327.75 455.208 330.946 473.713 330.881 495.607L338.881 495.631C338.948 472.98 335.648 453.369 328.832 436.915L321.441 439.977ZM330.881 495.619C330.881 517.451 327.652 535.82 321.348 550.848L328.726 553.942C335.546 537.682 338.881 518.201 338.881 495.619H330.881ZM321.354 550.834C314.983 565.871 305.999 577.104 294.484 584.76L298.914 591.422C311.925 582.771 321.834 570.207 328.72 553.955L321.354 550.834ZM294.48 584.763C282.902 592.481 269.018 596.42 252.651 596.42V604.42C270.355 604.42 285.837 600.14 298.918 591.419L294.48 584.763ZM252.651 596.42C236.282 596.42 222.436 592.481 210.929 584.768L206.475 591.414C219.494 600.14 234.947 604.42 252.651 604.42V596.42ZM210.921 584.763C199.333 577.038 190.317 565.768 183.947 550.735L176.581 553.856C183.469 570.111 193.412 582.705 206.483 591.419L210.921 584.763ZM183.945 550.729C177.583 535.78 174.355 517.456 174.42 495.631L166.42 495.607C166.353 518.195 169.687 537.656 176.584 553.862L183.945 550.729ZM174.42 495.619C174.42 473.658 177.681 455.121 184.054 439.891L176.674 436.803C169.789 453.258 166.42 472.902 166.42 495.619H174.42ZM184.059 439.877C190.371 424.639 199.33 413.209 210.854 405.36L206.351 398.748C193.348 407.604 183.481 420.368 176.668 436.816L184.059 439.877ZM210.854 405.36C222.356 397.526 236.225 393.526 252.651 393.526V385.526C234.871 385.526 219.375 389.877 206.351 398.748L210.854 405.36ZM252.651 421.222C239.31 421.222 228.806 428.076 221.27 440.78L228.15 444.862C234.535 434.1 242.658 429.222 252.651 429.222V421.222ZM221.27 440.78C213.763 453.435 210.302 471.899 210.369 495.631L218.369 495.608C218.304 472.408 221.737 455.673 228.15 444.862L221.27 440.78ZM210.369 495.619C210.369 511.307 211.981 524.597 215.321 535.382L222.963 533.016C219.939 523.251 218.369 510.822 218.369 495.619H210.369ZM215.314 535.36C218.563 546.076 223.312 554.532 229.796 560.345L235.136 554.388C230.085 549.86 225.952 542.871 222.97 533.038L215.314 535.36ZM229.779 560.329C236.222 566.173 243.91 569.122 252.651 569.122V561.122C245.88 561.122 240.112 558.901 235.153 554.404L229.779 560.329ZM252.651 569.122C265.912 569.122 276.38 562.348 283.921 549.78L277.062 545.664C270.682 556.296 262.59 561.122 252.651 561.122V569.122ZM283.921 549.78C291.431 537.264 294.964 519.036 295.031 495.631L287.031 495.608C286.966 518.472 283.473 534.978 277.062 545.664L283.921 549.78ZM295.031 495.619C295.031 479.741 293.454 466.268 290.192 455.303L282.524 457.584C285.493 467.565 287.031 480.21 287.031 495.619H295.031ZM290.183 455.274C286.871 444.439 282.095 435.892 275.624 430.016L270.246 435.939C275.309 440.536 279.482 447.633 282.533 457.613L290.183 455.274ZM275.605 429.999C269.103 424.17 261.39 421.222 252.651 421.222V429.222C259.422 429.222 265.232 431.444 270.264 435.956L275.605 429.999Z" fill="white"/>
<rect x="470.5" y="328.5" width="437" height="297" rx="38.5" transform="rotate(-180 470.5 328.5)" fill="white" stroke="black" stroke-width="3"/>
<rect x="294" y="293" width="83" height="226" rx="5" transform="rotate(-180 294 293)" fill="black"/>
</svg>
