<svg width="508" height="677" viewBox="0 0 508 677" fill="none" xmlns="http://www.w3.org/2000/svg">
<rect x="8.5" y="8.5" width="491" height="660" rx="31.5" fill="#5763AB" stroke="black" stroke-width="17"/>
<rect x="37.5" y="32.5" width="437" height="297" rx="38.5" fill="black" stroke="white" stroke-width="3"/>
<path d="M255.349 287.474C238.247 287.408 223.531 283.199 211.202 274.847C198.938 266.494 189.492 254.397 182.864 238.554C176.301 222.711 173.053 203.653 173.119 181.381C173.119 159.174 176.401 140.249 182.963 124.605C189.592 108.961 199.038 97.0625 211.301 88.9091C223.631 80.6894 238.313 76.5795 255.349 76.5795C272.385 76.5795 287.035 80.6894 299.298 88.9091C311.628 97.1288 321.107 109.061 327.736 124.705C334.365 140.282 337.646 159.174 337.58 181.381C337.58 203.72 334.265 222.811 327.636 238.653C321.074 254.496 311.661 266.594 299.398 274.946C287.134 283.298 272.452 287.474 255.349 287.474ZM255.349 251.778C267.016 251.778 276.33 245.912 283.29 234.179C290.25 222.446 293.697 204.847 293.631 181.381C293.631 165.936 292.04 153.076 288.858 142.801C285.742 132.527 281.301 124.804 275.534 119.634C269.833 114.463 263.105 111.878 255.349 111.878C243.749 111.878 234.469 117.678 227.509 129.278C220.548 140.879 217.035 158.246 216.969 181.381C216.969 197.025 218.527 210.083 221.642 220.557C224.824 230.964 229.298 238.786 235.065 244.023C240.832 249.193 247.594 251.778 255.349 251.778Z" fill="white"/>
<path d="M255.349 287.474L255.334 291.474L255.342 291.474H255.349V287.474ZM211.202 274.847L208.95 278.153L208.958 278.158L211.202 274.847ZM182.864 238.554L179.168 240.085L179.171 240.091L179.174 240.098L182.864 238.554ZM173.119 181.381L177.119 181.393V181.381H173.119ZM182.963 124.605L179.28 123.045L179.277 123.051L179.274 123.058L182.963 124.605ZM211.301 88.9091L213.516 92.2401L213.52 92.2373L211.301 88.9091ZM299.298 88.9091L297.071 92.2318L297.079 92.2373L299.298 88.9091ZM327.736 124.705L324.053 126.265L324.055 126.271L327.736 124.705ZM337.58 181.381L333.58 181.369V181.381H337.58ZM327.636 238.653L323.946 237.109L323.944 237.116L323.941 237.123L327.636 238.653ZM299.398 274.946L301.649 278.252L299.398 274.946ZM283.29 234.179L286.73 236.22L283.29 234.179ZM293.631 181.381H289.631L289.631 181.392L293.631 181.381ZM288.858 142.801L285.03 143.962L285.033 143.973L285.037 143.984L288.858 142.801ZM275.534 119.634L272.847 122.596L272.855 122.604L272.864 122.612L275.534 119.634ZM227.509 129.278L224.079 127.22V127.22L227.509 129.278ZM216.969 181.381L212.969 181.369V181.381H216.969ZM221.642 220.557L217.808 221.697L217.812 221.712L217.817 221.726L221.642 220.557ZM235.065 244.023L232.376 246.984L232.386 246.993L232.395 247.001L235.065 244.023ZM255.365 283.474C238.936 283.411 225.023 279.378 213.445 271.535L208.958 278.158C222.039 287.02 237.559 291.406 255.334 291.474L255.365 283.474ZM213.453 271.541C201.926 263.689 192.932 252.254 186.554 237.01L179.174 240.098C186.053 256.54 195.951 269.299 208.95 278.153L213.453 271.541ZM186.559 237.023C180.25 221.792 177.054 203.287 177.119 181.393L169.119 181.369C169.052 204.02 172.352 223.631 179.168 240.085L186.559 237.023ZM177.119 181.381C177.119 159.549 180.348 141.18 186.652 126.152L179.274 123.058C172.454 139.318 169.119 158.799 169.119 181.381H177.119ZM186.646 126.166C193.017 111.129 202.001 99.8961 213.516 92.2401L209.086 85.5781C196.075 94.2289 186.166 106.793 179.28 123.045L186.646 126.166ZM213.52 92.2373C225.098 84.5185 238.982 80.5795 255.349 80.5795V72.5795C237.645 72.5795 222.163 76.8603 209.082 85.5809L213.52 92.2373ZM255.349 80.5795C271.718 80.5795 285.564 84.5187 297.071 92.2318L301.525 85.5864C288.506 76.8601 273.053 72.5795 255.349 72.5795V80.5795ZM297.079 92.2373C308.667 99.9625 317.683 111.232 324.053 126.265L331.419 123.144C324.531 106.889 314.588 94.2951 301.517 85.5809L297.079 92.2373ZM324.055 126.271C330.417 141.22 333.645 159.544 333.58 181.369L341.58 181.393C341.647 158.805 338.313 139.344 331.416 123.138L324.055 126.271ZM333.58 181.381C333.58 203.342 330.319 221.879 323.946 237.109L331.326 240.197C338.211 223.742 341.58 204.098 341.58 181.381H333.58ZM323.941 237.123C317.629 252.361 308.67 263.791 297.146 271.64L301.649 278.252C314.652 269.396 324.519 256.632 331.332 240.184L323.941 237.123ZM297.146 271.64C285.644 279.474 271.775 283.474 255.349 283.474V291.474C273.129 291.474 288.625 287.123 301.649 278.252L297.146 271.64ZM255.349 255.778C268.69 255.778 279.194 248.924 286.73 236.22L279.85 232.138C273.465 242.9 265.342 247.778 255.349 247.778V255.778ZM286.73 236.22C294.237 223.565 297.698 205.101 297.631 181.369L289.631 181.392C289.696 204.592 286.263 221.327 279.85 232.138L286.73 236.22ZM297.631 181.381C297.631 165.693 296.019 152.403 292.679 141.618L285.037 143.984C288.061 153.749 289.631 166.178 289.631 181.381H297.631ZM292.686 141.64C289.437 130.924 284.688 122.468 278.204 116.655L272.864 122.612C277.915 127.14 282.048 134.129 285.03 143.962L292.686 141.64ZM278.221 116.671C271.778 110.827 264.09 107.878 255.349 107.878V115.878C262.12 115.878 267.888 118.099 272.847 122.596L278.221 116.671ZM255.349 107.878C242.088 107.878 231.62 114.652 224.079 127.22L230.938 131.336C237.318 120.704 245.41 115.878 255.349 115.878V107.878ZM224.079 127.22C216.569 139.736 213.036 157.964 212.969 181.369L220.969 181.392C221.034 158.528 224.527 142.022 230.938 131.336L224.079 127.22ZM212.969 181.381C212.969 197.259 214.546 210.732 217.808 221.697L225.476 219.416C222.507 209.435 220.969 196.79 220.969 181.381H212.969ZM217.817 221.726C221.129 232.561 225.905 241.108 232.376 246.984L237.754 241.061C232.691 236.464 228.518 229.367 225.467 219.387L217.817 221.726ZM232.395 247.001C238.897 252.83 246.61 255.778 255.349 255.778V247.778C248.578 247.778 242.768 245.556 237.736 241.044L232.395 247.001Z" fill="white"/>
<rect x="37.5" y="348.5" width="437" height="297" rx="38.5" fill="white" stroke="black" stroke-width="3"/>
<rect x="214" y="384" width="83" height="226" rx="5" fill="black"/>
</svg>
