<svg width="512" height="517" viewBox="0 0 512 517" fill="none" xmlns="http://www.w3.org/2000/svg">
<rect width="511.83" height="517" fill="black"/>
<path d="M327.591 322.449L262.818 291.837V279.592L344.636 313.265L327.591 322.449Z" fill="url(#paint0_linear_9_52)"/>
<path d="M296.909 334.694L262.818 319.388V304.081L313.955 328.571L296.909 334.694Z" fill="url(#paint1_linear_9_52)"/>
<path d="M358.273 307.143L262.818 267.347V252.04L371.909 301.02L358.273 307.143Z" fill="url(#paint2_linear_9_52)"/>
<path d="M385.545 294.898L262.818 239.796V224.489L406 288.775L385.545 294.898Z" fill="url(#paint3_linear_9_52)"/>
<path d="M406 166.326L365.091 147.959L378.727 141.836L406 154.081V166.326Z" fill="url(#paint4_linear_9_52)"/>
<path d="M406 193.877L331 160.203L348.045 154.081L406 180.46V193.877Z" fill="url(#paint5_linear_9_52)"/>
<path d="M406 221.428L303.727 175.51L317.364 169.387L406 206.122V221.428Z" fill="url(#paint6_linear_9_52)"/>
<path d="M406 248.979L273.045 187.755L286.682 181.632L406 233.673V248.979Z" fill="url(#paint7_linear_9_52)"/>
<path d="M406 276.53L262.818 212.244V196.938L406 261.224V276.53Z" fill="url(#paint8_linear_9_52)"/>
<path d="M392.363 108.162L358.272 95.9175H259.409H153.727L119.636 108.162H256H392.363Z" fill="url(#paint9_linear_9_52)"/>
<path d="M344.636 86.7338L313.954 74.4899L259.409 74.4889H198.045L174.182 86.7338H259.409H344.636Z" fill="url(#paint10_linear_9_52)"/>
<path d="M296.909 65.3052L257.547 50L221.909 65.3052H259.409H296.909Z" fill="url(#paint11_linear_9_52)"/>
<path d="M106 128.079V141.836L123.045 135.714L106 128.079Z" fill="url(#paint12_linear_9_52)"/>
<path d="M106 155.234L136.682 141.836L153.727 147.959L106 169.387L106 155.234Z" fill="url(#paint13_linear_9_52)"/>
<path d="M106 180.46L167.364 154.081L181 160.203L106 196.938L106 180.46Z" fill="url(#paint14_linear_9_52)"/>
<path d="M106 209.183L198.045 169.387L211.682 175.51L106 221.428V209.183Z" fill="url(#paint15_linear_9_52)"/>
<path d="M106 233.673L228.727 181.632L242.364 187.755L106 248.979V233.673Z" fill="url(#paint16_linear_9_52)"/>
<path d="M106 261.224L249.182 196.938V212.244L106 276.53L106 261.224Z" fill="url(#paint17_linear_9_52)"/>
<path d="M109.409 288.775L249.182 224.489V239.796L126.455 294.898L109.409 288.775Z" fill="url(#paint18_linear_9_52)"/>
<path d="M140.091 301.02L249.182 252.04V267.347L153.727 307.143L140.091 301.02Z" fill="url(#paint19_linear_9_52)"/>
<path d="M249.182 350H262.818V331.633L286.682 340.816L262.818 350H249.182L225.318 340.816L249.182 331.633V350Z" fill="url(#paint20_linear_9_52)"/>
<path d="M201.455 328.571L249.182 304.081V319.388L215.091 334.694L201.455 328.571Z" fill="url(#paint21_linear_9_52)"/>
<path d="M167.364 313.265L249.182 279.592V291.837L187.818 322.449L167.364 313.265Z" fill="url(#paint22_linear_9_52)"/>
<path d="M256 117.346H112.818L136.682 129.591H375.318L399.182 117.346H256Z" fill="url(#paint23_linear_9_52)"/>
<path d="M257.547 182.613L211.682 160.203H256H303.727L257.547 182.613Z" fill="url(#paint24_linear_9_52)"/>
<path d="M184.409 151.02L160.545 138.775H351.454L327.591 151.02H256H184.409Z" fill="url(#paint25_linear_9_52)"/>
<path d="M406 135.714L406 129.591L399.182 132.652L392.364 135.714L399.182 138.775L406 141.836L406 135.714Z" fill="url(#paint26_linear_9_52)"/>
<path d="M62.1826 459H48.2178V381.979H62.1826V459ZM155.479 453.038C155.479 454.041 155.282 454.972 154.888 455.831C154.53 456.69 154.028 457.442 153.384 458.087C152.775 458.696 152.041 459.179 151.182 459.537C150.322 459.895 149.409 460.074 148.442 460.074C147.583 460.074 146.706 459.913 145.811 459.591C144.951 459.269 144.181 458.749 143.501 458.033L92.4756 404.752V459H78.5107V387.94C78.5107 386.508 78.9046 385.219 79.6924 384.073C80.516 382.892 81.5544 382.014 82.8076 381.441C84.1325 380.904 85.4932 380.779 86.8896 381.065C88.2861 381.316 89.4857 381.961 90.4883 382.999L141.514 436.227V381.979H155.479V453.038ZM248.613 426.773C248.613 431.464 247.79 435.779 246.143 439.718C244.531 443.657 242.293 447.058 239.429 449.923C236.564 452.752 233.162 454.972 229.224 456.583C225.285 458.194 221.006 459 216.387 459H178.682C177.679 459 176.748 458.821 175.889 458.463C175.029 458.105 174.277 457.621 173.633 457.013C173.024 456.368 172.541 455.616 172.183 454.757C171.825 453.897 171.646 452.966 171.646 451.964V389.015C171.646 388.048 171.825 387.135 172.183 386.275C172.541 385.416 173.024 384.664 173.633 384.02C174.277 383.375 175.029 382.874 175.889 382.516C176.748 382.158 177.679 381.979 178.682 381.979H216.387C221.006 381.979 225.285 382.784 229.224 384.396C233.162 386.007 236.564 388.245 239.429 391.109C242.293 393.938 244.531 397.34 246.143 401.314C247.79 405.253 248.613 409.55 248.613 414.205V426.773ZM234.648 414.205C234.648 411.484 234.201 408.995 233.306 406.739C232.446 404.483 231.211 402.568 229.6 400.992C227.988 399.381 226.055 398.146 223.799 397.286C221.579 396.391 219.108 395.943 216.387 395.943H185.61V445.035H216.387C219.108 445.035 221.579 444.605 223.799 443.746C226.055 442.851 227.988 441.616 229.6 440.04C231.211 438.429 232.446 436.513 233.306 434.293C234.201 432.037 234.648 429.531 234.648 426.773V414.205ZM276.382 459H262.417V381.979H276.382V459ZM368.711 451.964C368.711 452.966 368.532 453.897 368.174 454.757C367.816 455.616 367.314 456.368 366.67 457.013C366.061 457.621 365.327 458.105 364.468 458.463C363.608 458.821 362.677 459 361.675 459H311.294C310.005 459 308.608 458.857 307.104 458.57C305.636 458.248 304.168 457.765 302.7 457.12C301.268 456.476 299.889 455.652 298.564 454.649C297.24 453.611 296.058 452.376 295.02 450.943C294.017 449.475 293.211 447.792 292.603 445.895C291.994 443.961 291.689 441.795 291.689 439.396V401.583C291.689 400.294 291.833 398.915 292.119 397.447C292.441 395.943 292.925 394.475 293.569 393.043C294.214 391.575 295.055 390.178 296.094 388.854C297.132 387.529 298.368 386.365 299.8 385.362C301.268 384.324 302.951 383.5 304.849 382.892C306.746 382.283 308.895 381.979 311.294 381.979H368.066V395.943H311.294C309.468 395.943 308.071 396.427 307.104 397.394C306.138 398.36 305.654 399.793 305.654 401.69V439.396C305.654 441.186 306.138 442.582 307.104 443.585C308.107 444.552 309.504 445.035 311.294 445.035H354.746V427.525H317.578V413.453H361.675C362.677 413.453 363.608 413.65 364.468 414.044C365.327 414.402 366.061 414.903 366.67 415.548C367.314 416.192 367.816 416.944 368.174 417.804C368.532 418.627 368.711 419.522 368.711 420.489V451.964ZM464.102 427.848C464.102 432.538 463.296 436.853 461.685 440.792C460.073 444.731 457.835 448.132 454.971 450.997C452.106 453.862 448.704 456.1 444.766 457.711C440.863 459.286 436.602 460.074 431.982 460.074H413.076C408.457 460.074 404.178 459.286 400.239 457.711C396.3 456.1 392.899 453.862 390.034 450.997C387.17 448.132 384.914 444.731 383.267 440.792C381.655 436.853 380.85 432.538 380.85 427.848V413.131C380.85 408.476 381.655 404.179 383.267 400.24C384.914 396.266 387.17 392.864 390.034 390.035C392.899 387.171 396.3 384.933 400.239 383.321C404.178 381.71 408.457 380.904 413.076 380.904H431.982C436.602 380.904 440.863 381.71 444.766 383.321C448.704 384.933 452.106 387.171 454.971 390.035C457.835 392.864 460.073 396.266 461.685 400.24C463.296 404.179 464.102 408.476 464.102 413.131V427.848ZM450.137 413.131C450.137 410.374 449.689 407.885 448.794 405.665C447.935 403.409 446.699 401.493 445.088 399.918C443.512 398.307 441.597 397.071 439.341 396.212C437.121 395.317 434.668 394.869 431.982 394.869H413.076C410.355 394.869 407.866 395.317 405.61 396.212C403.39 397.071 401.475 398.307 399.863 399.918C398.252 401.493 396.999 403.409 396.104 405.665C395.244 407.885 394.814 410.374 394.814 413.131V427.848C394.814 430.605 395.244 433.111 396.104 435.367C396.999 437.587 398.252 439.503 399.863 441.114C401.475 442.69 403.39 443.925 405.61 444.82C407.866 445.68 410.355 446.109 413.076 446.109H431.875C434.596 446.109 437.067 445.68 439.287 444.82C441.543 443.925 443.477 442.69 445.088 441.114C446.699 439.503 447.935 437.587 448.794 435.367C449.689 433.111 450.137 430.605 450.137 427.848V413.131Z" fill="white"/>
<defs>
<linearGradient id="paint0_linear_9_52" x1="106" y1="120.408" x2="387.039" y2="316.018" gradientUnits="userSpaceOnUse">
<stop stop-color="#970176"/>
<stop offset="0.496366" stop-color="#4F009E"/>
<stop offset="1" stop-color="#00069E"/>
</linearGradient>
<linearGradient id="paint1_linear_9_52" x1="106" y1="120.408" x2="387.039" y2="316.018" gradientUnits="userSpaceOnUse">
<stop stop-color="#970176"/>
<stop offset="0.496366" stop-color="#4F009E"/>
<stop offset="1" stop-color="#00069E"/>
</linearGradient>
<linearGradient id="paint2_linear_9_52" x1="106" y1="120.408" x2="387.039" y2="316.018" gradientUnits="userSpaceOnUse">
<stop stop-color="#970176"/>
<stop offset="0.496366" stop-color="#4F009E"/>
<stop offset="1" stop-color="#00069E"/>
</linearGradient>
<linearGradient id="paint3_linear_9_52" x1="106" y1="120.408" x2="387.039" y2="316.018" gradientUnits="userSpaceOnUse">
<stop stop-color="#970176"/>
<stop offset="0.496366" stop-color="#4F009E"/>
<stop offset="1" stop-color="#00069E"/>
</linearGradient>
<linearGradient id="paint4_linear_9_52" x1="106" y1="120.408" x2="387.039" y2="316.018" gradientUnits="userSpaceOnUse">
<stop stop-color="#970176"/>
<stop offset="0.496366" stop-color="#4F009E"/>
<stop offset="1" stop-color="#00069E"/>
</linearGradient>
<linearGradient id="paint5_linear_9_52" x1="106" y1="120.408" x2="387.039" y2="316.018" gradientUnits="userSpaceOnUse">
<stop stop-color="#970176"/>
<stop offset="0.496366" stop-color="#4F009E"/>
<stop offset="1" stop-color="#00069E"/>
</linearGradient>
<linearGradient id="paint6_linear_9_52" x1="106" y1="120.408" x2="387.039" y2="316.018" gradientUnits="userSpaceOnUse">
<stop stop-color="#970176"/>
<stop offset="0.496366" stop-color="#4F009E"/>
<stop offset="1" stop-color="#00069E"/>
</linearGradient>
<linearGradient id="paint7_linear_9_52" x1="106" y1="120.408" x2="387.039" y2="316.018" gradientUnits="userSpaceOnUse">
<stop stop-color="#970176"/>
<stop offset="0.496366" stop-color="#4F009E"/>
<stop offset="1" stop-color="#00069E"/>
</linearGradient>
<linearGradient id="paint8_linear_9_52" x1="106" y1="120.408" x2="387.039" y2="316.018" gradientUnits="userSpaceOnUse">
<stop stop-color="#970176"/>
<stop offset="0.496366" stop-color="#4F009E"/>
<stop offset="1" stop-color="#00069E"/>
</linearGradient>
<linearGradient id="paint9_linear_9_52" x1="106" y1="120.408" x2="387.039" y2="316.018" gradientUnits="userSpaceOnUse">
<stop stop-color="#970176"/>
<stop offset="0.496366" stop-color="#4F009E"/>
<stop offset="1" stop-color="#00069E"/>
</linearGradient>
<linearGradient id="paint10_linear_9_52" x1="106" y1="120.408" x2="387.039" y2="316.018" gradientUnits="userSpaceOnUse">
<stop stop-color="#970176"/>
<stop offset="0.496366" stop-color="#4F009E"/>
<stop offset="1" stop-color="#00069E"/>
</linearGradient>
<linearGradient id="paint11_linear_9_52" x1="106" y1="120.408" x2="387.039" y2="316.018" gradientUnits="userSpaceOnUse">
<stop stop-color="#970176"/>
<stop offset="0.496366" stop-color="#4F009E"/>
<stop offset="1" stop-color="#00069E"/>
</linearGradient>
<linearGradient id="paint12_linear_9_52" x1="106" y1="120.408" x2="387.039" y2="316.018" gradientUnits="userSpaceOnUse">
<stop stop-color="#970176"/>
<stop offset="0.496366" stop-color="#4F009E"/>
<stop offset="1" stop-color="#00069E"/>
</linearGradient>
<linearGradient id="paint13_linear_9_52" x1="106" y1="120.408" x2="387.039" y2="316.018" gradientUnits="userSpaceOnUse">
<stop stop-color="#970176"/>
<stop offset="0.496366" stop-color="#4F009E"/>
<stop offset="1" stop-color="#00069E"/>
</linearGradient>
<linearGradient id="paint14_linear_9_52" x1="106" y1="120.408" x2="387.039" y2="316.018" gradientUnits="userSpaceOnUse">
<stop stop-color="#970176"/>
<stop offset="0.496366" stop-color="#4F009E"/>
<stop offset="1" stop-color="#00069E"/>
</linearGradient>
<linearGradient id="paint15_linear_9_52" x1="106" y1="120.408" x2="387.039" y2="316.018" gradientUnits="userSpaceOnUse">
<stop stop-color="#970176"/>
<stop offset="0.496366" stop-color="#4F009E"/>
<stop offset="1" stop-color="#00069E"/>
</linearGradient>
<linearGradient id="paint16_linear_9_52" x1="106" y1="120.408" x2="387.039" y2="316.018" gradientUnits="userSpaceOnUse">
<stop stop-color="#970176"/>
<stop offset="0.496366" stop-color="#4F009E"/>
<stop offset="1" stop-color="#00069E"/>
</linearGradient>
<linearGradient id="paint17_linear_9_52" x1="106" y1="120.408" x2="387.039" y2="316.018" gradientUnits="userSpaceOnUse">
<stop stop-color="#970176"/>
<stop offset="0.496366" stop-color="#4F009E"/>
<stop offset="1" stop-color="#00069E"/>
</linearGradient>
<linearGradient id="paint18_linear_9_52" x1="106" y1="120.408" x2="387.039" y2="316.018" gradientUnits="userSpaceOnUse">
<stop stop-color="#970176"/>
<stop offset="0.496366" stop-color="#4F009E"/>
<stop offset="1" stop-color="#00069E"/>
</linearGradient>
<linearGradient id="paint19_linear_9_52" x1="106" y1="120.408" x2="387.039" y2="316.018" gradientUnits="userSpaceOnUse">
<stop stop-color="#970176"/>
<stop offset="0.496366" stop-color="#4F009E"/>
<stop offset="1" stop-color="#00069E"/>
</linearGradient>
<linearGradient id="paint20_linear_9_52" x1="106" y1="120.408" x2="387.039" y2="316.018" gradientUnits="userSpaceOnUse">
<stop stop-color="#970176"/>
<stop offset="0.496366" stop-color="#4F009E"/>
<stop offset="1" stop-color="#00069E"/>
</linearGradient>
<linearGradient id="paint21_linear_9_52" x1="106" y1="120.408" x2="387.039" y2="316.018" gradientUnits="userSpaceOnUse">
<stop stop-color="#970176"/>
<stop offset="0.496366" stop-color="#4F009E"/>
<stop offset="1" stop-color="#00069E"/>
</linearGradient>
<linearGradient id="paint22_linear_9_52" x1="106" y1="120.408" x2="387.039" y2="316.018" gradientUnits="userSpaceOnUse">
<stop stop-color="#970176"/>
<stop offset="0.496366" stop-color="#4F009E"/>
<stop offset="1" stop-color="#00069E"/>
</linearGradient>
<linearGradient id="paint23_linear_9_52" x1="106" y1="120.408" x2="387.039" y2="316.018" gradientUnits="userSpaceOnUse">
<stop stop-color="#970176"/>
<stop offset="0.496366" stop-color="#4F009E"/>
<stop offset="1" stop-color="#00069E"/>
</linearGradient>
<linearGradient id="paint24_linear_9_52" x1="106" y1="120.408" x2="387.039" y2="316.018" gradientUnits="userSpaceOnUse">
<stop stop-color="#970176"/>
<stop offset="0.496366" stop-color="#4F009E"/>
<stop offset="1" stop-color="#00069E"/>
</linearGradient>
<linearGradient id="paint25_linear_9_52" x1="106" y1="120.408" x2="387.039" y2="316.018" gradientUnits="userSpaceOnUse">
<stop stop-color="#970176"/>
<stop offset="0.496366" stop-color="#4F009E"/>
<stop offset="1" stop-color="#00069E"/>
</linearGradient>
<linearGradient id="paint26_linear_9_52" x1="106" y1="120.408" x2="387.039" y2="316.018" gradientUnits="userSpaceOnUse">
<stop stop-color="#970176"/>
<stop offset="0.496366" stop-color="#4F009E"/>
<stop offset="1" stop-color="#00069E"/>
</linearGradient>
</defs>
</svg>
