<svg width="508" height="677" viewBox="0 0 508 677" fill="none" xmlns="http://www.w3.org/2000/svg">
<rect x="8.5" y="8.5" width="491" height="660" rx="31.5" fill="#D2CE30" stroke="black" stroke-width="17"/>
<path d="M86 118H88L88.5 120.5H86.5L86 119V118Z" fill="black"/>
<path d="M30.1719 34.7886L30.488 34.9978L31.0457 36.183L31.6732 37.2287L32.0218 37.8562L32.3331 38.135L32.5422 38.4139V38.7625L32.9281 38.8322L33.0675 39.1808L33.3788 39.4596L33.4858 39.7385L33.7647 39.8779L34.1133 40.0871V40.366L34.4618 40.7145L34.7407 40.9237L35.0893 41.342L35.7492 41.9694L37.2132 42.9455L37.878 43.4335L38.5751 43.7821L39.5511 44.2701L40.1089 44.6884L40.6666 44.9672L41.2243 45.1764L41.6426 45.3158L42.1306 45.525L42.6884 45.7341L43.3158 45.9433L43.8038 46.0827L44.2919 46.2221L44.7799 46.4313L45.0587 46.501L51.0543 47.4073L53.355 47.477L54.8887 47.3883L56.2134 47.3376L60.2569 46.6404L62.6273 45.8736L65.1371 45.2461L67.1588 44.1306L69.6686 42.6666L71.9693 40.9934L73.3636 39.5294L74.2699 38.4836L75.0368 37.5076L75.8037 36.2527L76.7797 34.5795V37.3682L76.8494 39.1111V42.318L76.71 46.2221L76.5705 49.2897L76.1522 51.7297L74.3396 61.002L72.8756 65.7427L70.8538 70.2046L70.0869 71.5989L69.4595 72.9235L67.5771 75.6424L65.4159 78.0825L63.0456 80.2437L60.3266 81.9866L58.7929 82.6838L57.1197 83.1718L55.7253 83.5901L53.9824 83.7295L51.7515 83.5204L49.5903 83.1021L47.4291 82.2655L45.4073 81.15L43.6271 79.8951L42.2701 78.6402L41.0476 77.5248L40.0716 76.2699L39.6209 75.7122L38.3287 74.1087L37.9104 73.2024L37.1435 72.2263L36.5161 71.1109L36.2372 70.344L35.7492 69.5771L35.3309 68.3919L34.8429 67.2765L34.2154 65.6033L33.5183 63.6512L33.0302 62.0478L32.1936 58.8408L31.8823 57.5859L31.6035 56.2613L31.3943 55.2155L31.2549 54.2395L31.1155 53.2635L31.0457 52.7755L30.976 52.4269L30.7669 51.1023L30.6274 49.8474L30.4183 47.965L30.2789 46.013L30.0697 41.83L30 37.8562L30.1719 34.7886Z" fill="#5763AB"/>
<path d="M30.2789 34.3006C36.8322 51.4509 68.832 52.0783 76.7797 34.0915" stroke="black" stroke-width="3"/>
<path d="M30.1075 33.9521C27.3188 100.392 79.7455 100.392 76.8872 33.9521" stroke="black" stroke-width="3"/>
<path d="M30.1394 33.9521H30.4183L30.488 34.3006H30.2092L30.1394 34.0915V33.9521Z" fill="black"/>
<path d="M48.0526 59.0521C48.0236 56.2704 50.2706 54 53.0523 54H53.318C56.0794 54 58.318 56.2386 58.318 59V71.5C58.318 74.2614 56.0794 76.5 53.318 76.5H53.1825C50.4414 76.5 48.2113 74.293 48.1828 71.5521L48.0526 59.0521Z" fill="white"/>
<g filter="url(#filter0_d_1_234)">
<path d="M472.828 644.832L472.512 644.61L471.954 643.357L471.327 642.25L470.978 641.586L470.667 641.291L470.458 640.996V640.628L470.072 640.554L469.932 640.185L469.621 639.89L469.514 639.595L469.235 639.448L468.887 639.226V638.931L468.538 638.562L468.259 638.341L467.911 637.899L467.251 637.235L465.787 636.202L465.122 635.686L464.425 635.317L463.449 634.801L462.891 634.358L462.333 634.063L461.776 633.842L461.357 633.695L460.869 633.473L460.312 633.252L459.684 633.031L459.196 632.883L458.708 632.736L458.22 632.515L457.941 632.441L451.946 631.482L449.645 631.408L448.111 631.502L446.787 631.556L442.743 632.293L440.373 633.105L437.863 633.768L435.841 634.948L433.331 636.497L431.031 638.267L429.636 639.816L428.73 640.923L427.963 641.955L427.196 643.283L426.22 645.053V642.103L426.151 640.259V636.866L426.29 632.736L426.429 629.491L426.848 626.909L428.66 617.1L430.124 612.084L432.146 607.364L432.913 605.889L433.541 604.487L435.423 601.611L437.584 599.03L439.954 596.743L442.673 594.899L444.207 594.162L445.88 593.645L447.275 593.203L449.018 593.055L451.248 593.277L453.41 593.719L455.571 594.604L457.593 595.784L459.373 597.112L460.73 598.44L461.952 599.62L462.928 600.947L463.379 601.537L464.671 603.234L465.09 604.192L465.856 605.225L466.484 606.405L466.763 607.216L467.251 608.028L467.669 609.282L468.157 610.462L468.785 612.232L469.482 614.297L469.97 615.993L470.806 619.386L471.118 620.714L471.397 622.115L471.606 623.221L471.745 624.254L471.885 625.286L471.954 625.803L472.024 626.172L472.233 627.573L472.373 628.901L472.582 630.892L472.721 632.957L472.93 637.382L473 641.586L472.828 644.832Z" fill="#5763AB"/>
<path d="M472.721 645.348C466.168 627.204 434.168 626.54 426.22 645.569" stroke="black" stroke-width="3"/>
<path d="M472.893 645.717C475.681 575.428 423.254 575.428 426.113 645.717" stroke="black" stroke-width="3"/>
<path d="M472.861 645.717H472.582L472.512 645.348H472.791L472.861 645.569V645.717Z" fill="black"/>
<path d="M455.318 621.623C455.318 624.385 453.079 626.623 450.318 626.623H450C447.239 626.623 445 624.385 445 621.623V608C445 605.239 447.239 603 450 603H450.318C453.079 603 455.318 605.239 455.318 608V621.623Z" fill="white"/>
</g>
<g filter="url(#filter1_d_1_234)">
<path d="M228.346 565.5V466H288.346V565.5V567H289.846H313.484L259.811 626.794L202.515 567H226.846H228.346V565.5Z" fill="#5763AB" stroke="black" stroke-width="3"/>
<path d="M86.2326 123.5L88.5 125L92.5 133.5L97 141L99.5 145.5L101.733 147.5L103.233 149.5V152L106 152.5L107 155L109.233 157L110 159L112 160L114.5 161.5V163.5L117 166L119 167.5L121.5 170.5L126.233 175L136.733 182L141.5 185.5L146.5 188L153.5 191.5L157.5 194.5L161.5 196.5L165.5 198L168.5 199L172 200.5L176 202L180.5 203.5L184 204.5L187.5 205.5L191 207L193 207.5L236 214L252.5 214.5L263.5 213.864L273 213.5L302 208.5L319 203L337 198.5L351.5 190.5L369.5 180L386 168L396 157.5L402.5 150L408 143L413.5 134L420.5 122V142L421 154.5V177.5L420 205.5L419 227.5L416 245L403 311.5L392.5 345.5L378 377.5L372.5 387.5L368 397L354.5 416.5L339 434L322 449.5L302.5 462L291.5 467L279.5 470.5L269.5 473.5L257 474.5L241 473L225.5 470L210 464L195.5 456L182.733 447L173 438L164.233 430L157.233 421L154 417L144.733 405.5L141.733 399L136.233 392L131.733 384L129.733 378.5L126.233 373L123.233 364.5L119.733 356.5L115.233 344.5L110.233 330.5L106.733 319L100.733 296L98.5 287L96.5 277.5L95 270L94 263L93 256L92.5 252.5L92 250L90.5 240.5L89.5 231.5L88 218L87 204L85.5 174L85 145.5L86.2326 123.5Z" fill="#5763AB"/>
<path d="M85.7708 118C65.7709 594.5 441.771 594.5 421.271 118" stroke="black" stroke-width="3"/>
<path d="M326.5 84.5H370.5V188.198L364.508 193.539L364.502 193.544L348.526 207.63L326.5 218.579V84.5Z" fill="#5763AB" stroke="black" stroke-width="3"/>
<path d="M87 120.5C134 243.5 363.5 248 420.5 119" stroke="black" stroke-width="3"/>
<path d="M389.5 170.5L382.5 174L369 181.5V177V173.779H328V186.5V200L327.581 202.5L324.5 204L323.159 279.5L383.419 240.315L389.5 170.5Z" fill="#5763AB"/>
<path d="M135.5 241.727V84.5H179.5V278.276L170.802 272.772L170.754 272.741L170.705 272.715L159.288 266.641L135.5 241.727Z" fill="#5763AB" stroke="black" stroke-width="3"/>
<path d="M122 173.712L128.5 178L137 183.5V177H178V203.5L183.5 206L182 283L154 274.5L127.5 243.712L122 173.712Z" fill="#5763AB"/>
<rect x="220.5" y="234.5" width="66" height="208" rx="2.5" fill="black" stroke="white" stroke-width="5"/>
<path d="M229.863 467.607H286.863V468.892L286.5 484.5L230.344 476.497L229.844 473.997V471.997L229.863 467.607Z" fill="#5763AB"/>
<path d="M252.919 140.636C252.919 144.205 252.243 147.241 250.89 149.745C249.547 152.249 247.715 154.161 245.392 155.482C243.081 156.792 240.481 157.447 237.594 157.447C234.686 157.447 232.076 156.787 229.764 155.466C227.452 154.145 225.625 152.233 224.283 149.729C222.94 147.225 222.269 144.195 222.269 140.636C222.269 137.067 222.94 134.031 224.283 131.528C225.625 129.024 227.452 127.117 229.764 125.807C232.076 124.486 234.686 123.825 237.594 123.825C240.481 123.825 243.081 124.486 245.392 125.807C247.715 127.117 249.547 129.024 250.89 131.528C252.243 134.031 252.919 137.067 252.919 140.636ZM245.904 140.636C245.904 138.325 245.558 136.375 244.865 134.788C244.183 133.2 243.219 131.996 241.973 131.176C240.726 130.356 239.267 129.946 237.594 129.946C235.922 129.946 234.462 130.356 233.216 131.176C231.969 131.996 231 133.2 230.307 134.788C229.625 136.375 229.284 138.325 229.284 140.636C229.284 142.948 229.625 144.898 230.307 146.485C231 148.072 231.969 149.276 233.216 150.097C234.462 150.917 235.922 151.327 237.594 151.327C239.267 151.327 240.726 150.917 241.973 150.097C243.219 149.276 244.183 148.072 244.865 146.485C245.558 144.898 245.904 142.948 245.904 140.636ZM260.295 157V124.273H273.207C275.678 124.273 277.788 124.715 279.535 125.599C281.293 126.473 282.63 127.714 283.546 129.322C284.473 130.92 284.936 132.801 284.936 134.963C284.936 137.137 284.467 139.006 283.53 140.572C282.592 142.128 281.234 143.321 279.455 144.152C277.686 144.983 275.545 145.398 273.031 145.398H264.386V139.837H271.912C273.233 139.837 274.331 139.656 275.204 139.294C276.078 138.932 276.728 138.388 277.154 137.664C277.59 136.94 277.809 136.039 277.809 134.963C277.809 133.877 277.59 132.961 277.154 132.215C276.728 131.469 276.072 130.904 275.188 130.521C274.315 130.127 273.212 129.93 271.88 129.93H267.214V157H260.295ZM277.969 142.107L286.103 157H278.464L270.506 142.107H277.969Z" fill="#5763AB"/>
<path d="M250.89 149.745L249.13 148.794L249.127 148.8L250.89 149.745ZM245.392 155.482L246.379 157.222L246.381 157.22L245.392 155.482ZM229.764 155.466L230.756 153.729L229.764 155.466ZM224.283 149.729L222.52 150.674L224.283 149.729ZM224.283 131.528L226.045 132.473H226.045L224.283 131.528ZM229.764 125.807L230.75 127.547L230.756 127.543L229.764 125.807ZM245.392 125.807L244.4 127.543L244.41 127.549L245.392 125.807ZM250.89 131.528L249.127 132.473L249.13 132.479L250.89 131.528ZM244.865 134.788L243.027 135.577L243.032 135.587L244.865 134.788ZM241.973 131.176L240.873 132.847L241.973 131.176ZM233.216 131.176L234.315 132.847L233.216 131.176ZM230.307 134.788L228.474 133.988L228.47 133.998L230.307 134.788ZM230.307 146.485L228.469 147.274L228.474 147.285L230.307 146.485ZM233.216 150.097L234.315 148.426L233.216 150.097ZM241.973 150.097L240.873 148.426L241.973 150.097ZM244.865 146.485L243.032 145.685L243.027 145.696L244.865 146.485ZM250.919 140.636C250.919 143.956 250.29 146.648 249.13 148.794L252.649 150.696C254.195 147.835 254.919 144.454 254.919 140.636H250.919ZM249.127 148.8C247.951 150.993 246.378 152.621 244.404 153.743L246.381 157.22C249.052 155.701 251.144 153.504 252.652 150.69L249.127 148.8ZM244.406 153.742C242.421 154.867 240.166 155.447 237.594 155.447V159.447C240.796 159.447 243.74 158.717 246.379 157.222L244.406 153.742ZM237.594 155.447C235.001 155.447 232.738 154.862 230.756 153.729L228.772 157.202C231.413 158.712 234.371 159.447 237.594 159.447V155.447ZM230.756 153.729C228.792 152.607 227.223 150.98 226.045 148.784L222.52 150.674C224.027 153.485 226.112 155.683 228.772 157.202L230.756 153.729ZM226.045 148.784C224.893 146.635 224.269 143.947 224.269 140.636H220.269C220.269 144.443 220.987 147.816 222.52 150.674L226.045 148.784ZM224.269 140.636C224.269 137.314 224.894 134.62 226.045 132.473L222.52 130.583C220.987 133.442 220.269 136.821 220.269 140.636H224.269ZM226.045 132.473C227.222 130.278 228.79 128.658 230.75 127.547L228.778 124.067C226.114 125.577 224.028 127.77 222.52 130.583L226.045 132.473ZM230.756 127.543C232.738 126.411 235.001 125.825 237.594 125.825V121.825C234.371 121.825 231.413 122.561 228.772 124.07L230.756 127.543ZM237.594 125.825C240.163 125.825 242.416 126.409 244.4 127.543L246.385 124.07C243.745 122.562 240.799 121.825 237.594 121.825V125.825ZM244.41 127.549C246.38 128.66 247.952 130.281 249.127 132.473L252.652 130.583C251.143 127.768 249.05 125.574 246.375 124.065L244.41 127.549ZM249.13 132.479C250.29 134.625 250.919 137.317 250.919 140.636H254.919C254.919 136.818 254.195 133.438 252.649 130.577L249.13 132.479ZM247.904 140.636C247.904 138.137 247.531 135.897 246.698 133.988L243.032 135.587C243.584 136.853 243.904 138.512 243.904 140.636H247.904ZM246.703 133.998C245.891 132.109 244.695 130.573 243.072 129.505L240.873 132.847C241.743 133.42 242.475 134.291 243.027 135.577L246.703 133.998ZM243.072 129.505C241.461 128.445 239.609 127.946 237.594 127.946V131.946C238.925 131.946 239.992 132.267 240.873 132.847L243.072 129.505ZM237.594 127.946C235.58 127.946 233.728 128.445 232.116 129.505L234.315 132.847C235.196 132.267 236.263 131.946 237.594 131.946V127.946ZM232.116 129.505C230.496 130.571 229.296 132.104 228.474 133.988L232.14 135.587C232.703 134.297 233.442 133.422 234.315 132.847L232.116 129.505ZM228.47 133.998C227.651 135.904 227.284 138.14 227.284 140.636H231.284C231.284 138.509 231.6 136.846 232.145 135.577L228.47 133.998ZM227.284 140.636C227.284 143.133 227.651 145.369 228.47 147.274L232.145 145.696C231.6 144.427 231.284 142.764 231.284 140.636H227.284ZM228.474 147.285C229.296 149.169 230.496 150.701 232.116 151.767L234.315 148.426C233.442 147.851 232.703 146.976 232.14 145.685L228.474 147.285ZM232.116 151.767C233.728 152.828 235.58 153.327 237.594 153.327V149.327C236.263 149.327 235.196 149.006 234.315 148.426L232.116 151.767ZM237.594 153.327C239.609 153.327 241.461 152.828 243.072 151.767L240.873 148.426C239.992 149.006 238.925 149.327 237.594 149.327V153.327ZM243.072 151.767C244.695 150.699 245.891 149.163 246.703 147.274L243.027 145.696C242.475 146.982 241.743 147.853 240.873 148.426L243.072 151.767ZM246.698 147.285C247.531 145.376 247.904 143.136 247.904 140.636H243.904C243.904 142.76 243.584 144.42 243.032 145.685L246.698 147.285ZM260.295 157H258.295V159H260.295V157ZM260.295 124.273V122.273H258.295V124.273H260.295ZM279.535 125.599L278.632 127.384L278.638 127.387L278.645 127.39L279.535 125.599ZM283.546 129.322L281.808 130.312L281.812 130.319L281.816 130.326L283.546 129.322ZM283.53 140.572L285.243 141.605L285.246 141.6L283.53 140.572ZM279.455 144.152L278.608 142.34L278.604 142.342L279.455 144.152ZM264.386 145.398H262.386V147.398H264.386V145.398ZM264.386 139.837V137.837H262.386V139.837H264.386ZM275.204 139.294L275.97 141.142V141.142L275.204 139.294ZM277.154 137.664L275.441 136.631L275.435 136.641L275.43 136.65L277.154 137.664ZM277.154 132.215L275.417 133.207L275.423 133.216L275.428 133.226L277.154 132.215ZM275.188 130.521L274.366 132.344L274.379 132.35L274.392 132.356L275.188 130.521ZM267.214 129.93V127.93H265.214V129.93H267.214ZM267.214 157V159H269.214V157H267.214ZM277.969 142.107L279.724 141.148L279.155 140.107H277.969V142.107ZM286.103 157V159H289.474L287.858 156.041L286.103 157ZM278.464 157L276.7 157.943L277.265 159H278.464V157ZM270.506 142.107V140.107H267.17L268.742 143.049L270.506 142.107ZM262.295 157V124.273H258.295V157H262.295ZM260.295 126.273H273.207V122.273H260.295V126.273ZM273.207 126.273C275.445 126.273 277.228 126.673 278.632 127.384L280.438 123.815C278.347 122.756 275.912 122.273 273.207 122.273V126.273ZM278.645 127.39C280.069 128.098 281.1 129.07 281.808 130.312L285.284 128.333C284.159 126.357 282.516 124.847 280.425 123.808L278.645 127.39ZM281.816 130.326C282.538 131.571 282.936 133.093 282.936 134.963H286.936C286.936 132.509 286.408 130.27 285.276 128.319L281.816 130.326ZM282.936 134.963C282.936 136.844 282.533 138.344 281.814 139.545L285.246 141.6C286.402 139.669 286.936 137.429 286.936 134.963H282.936ZM281.817 139.54C281.101 140.727 280.058 141.663 278.608 142.34L280.301 145.964C282.41 144.979 284.083 143.528 285.243 141.605L281.817 139.54ZM278.604 142.342C277.167 143.017 275.332 143.398 273.031 143.398V147.398C275.758 147.398 278.206 146.949 280.305 145.962L278.604 142.342ZM273.031 143.398H264.386V147.398H273.031V143.398ZM266.386 145.398V139.837H262.386V145.398H266.386ZM264.386 141.837H271.912V137.837H264.386V141.837ZM271.912 141.837C273.399 141.837 274.778 141.636 275.97 141.142L274.438 137.447C273.883 137.677 273.067 137.837 271.912 137.837V141.837ZM275.97 141.142C277.192 140.635 278.204 139.823 278.878 138.678L275.43 136.65C275.251 136.954 274.963 137.229 274.438 137.447L275.97 141.142ZM278.866 138.697C279.536 137.586 279.809 136.306 279.809 134.963H275.809C275.809 135.773 275.645 136.293 275.441 136.631L278.866 138.697ZM279.809 134.963C279.809 133.612 279.537 132.326 278.879 131.204L275.428 133.226C275.644 133.595 275.809 134.142 275.809 134.963H279.809ZM278.89 131.223C278.224 130.056 277.214 129.219 275.984 128.686L274.392 132.356C274.931 132.589 275.231 132.882 275.417 133.207L278.89 131.223ZM276.011 128.698C274.799 128.151 273.392 127.93 271.88 127.93V131.93C273.032 131.93 273.831 132.103 274.366 132.344L276.011 128.698ZM271.88 127.93H267.214V131.93H271.88V127.93ZM265.214 129.93V157H269.214V129.93H265.214ZM267.214 155H260.295V159H267.214V155ZM276.213 143.065L284.347 157.959L287.858 156.041L279.724 141.148L276.213 143.065ZM286.103 155H278.464V159H286.103V155ZM280.228 156.057L272.27 141.164L268.742 143.049L276.7 157.943L280.228 156.057ZM270.506 144.107H277.969V140.107H270.506V144.107Z" fill="black"/>
</g>
<defs>
<filter id="filter0_d_1_234" x="418.5" y="591.5" width="58" height="62.6473" filterUnits="userSpaceOnUse" color-interpolation-filters="sRGB">
<feFlood flood-opacity="0" result="BackgroundImageFix"/>
<feColorMatrix in="SourceAlpha" type="matrix" values="0 0 0 0 0 0 0 0 0 0 0 0 0 0 0 0 0 0 127 0" result="hardAlpha"/>
<feOffset dx="-2" dy="4"/>
<feGaussianBlur stdDeviation="2"/>
<feComposite in2="hardAlpha" operator="out"/>
<feColorMatrix type="matrix" values="0 0 0 0 0 0 0 0 0 0 0 0 0 0 0 0 0 0 0.3 0"/>
<feBlend mode="normal" in2="BackgroundImageFix" result="effect1_dropShadow_1_234"/>
<feBlend mode="normal" in="SourceGraphic" in2="effect1_dropShadow_1_234" result="shape"/>
</filter>
<filter id="filter1_d_1_234" x="77.5" y="83" width="348.08" height="554" filterUnits="userSpaceOnUse" color-interpolation-filters="sRGB">
<feFlood flood-opacity="0" result="BackgroundImageFix"/>
<feColorMatrix in="SourceAlpha" type="matrix" values="0 0 0 0 0 0 0 0 0 0 0 0 0 0 0 0 0 0 127 0" result="hardAlpha"/>
<feOffset dx="-2" dy="4"/>
<feGaussianBlur stdDeviation="2"/>
<feComposite in2="hardAlpha" operator="out"/>
<feColorMatrix type="matrix" values="0 0 0 0 0 0 0 0 0 0 0 0 0 0 0 0 0 0 0.3 0"/>
<feBlend mode="normal" in2="BackgroundImageFix" result="effect1_dropShadow_1_234"/>
<feBlend mode="normal" in="SourceGraphic" in2="effect1_dropShadow_1_234" result="shape"/>
</filter>
</defs>
</svg>
