<svg width="508" height="677" viewBox="0 0 508 677" fill="none" xmlns="http://www.w3.org/2000/svg">
<rect x="8.5" y="8.5" width="491" height="660" rx="31.5" fill="#D2A628" stroke="black" stroke-width="17"/>
<path d="M87 122H89L89.5 124.5H87.5L87 123V122Z" fill="black"/>
<path d="M31.1719 38.7886L31.488 38.9978L32.0457 40.1829L32.6732 41.2287L33.0218 41.8561L33.3331 42.135L33.5422 42.4139V42.7624L33.9281 42.8322L34.0675 43.1807L34.3788 43.4596L34.4858 43.7385L34.7647 43.8779L35.1133 44.0871V44.3659L35.4618 44.7145L35.7407 44.9237L36.0893 45.342L36.7492 45.9694L38.2132 46.9454L38.878 47.4334L39.5751 47.782L40.5511 48.27L41.1089 48.6883L41.6666 48.9672L42.2243 49.1764L42.6426 49.3158L43.1306 49.5249L43.6884 49.7341L44.3158 49.9432L44.8038 50.0827L45.2919 50.2221L45.7799 50.4313L46.0587 50.501L52.0543 51.4073L54.355 51.477L55.8887 51.3883L57.2134 51.3376L61.2569 50.6404L63.6273 49.8735L66.1371 49.2461L68.1588 48.1306L70.6686 46.6666L72.9693 44.9934L74.3636 43.5293L75.2699 42.4836L76.0368 41.5076L76.8037 40.2527L77.7797 38.5795V41.3681L77.8494 43.111V46.318L77.71 50.2221L77.5705 53.2896L77.1522 55.7297L75.3396 65.002L73.8756 69.7427L71.8538 74.2045L71.0869 75.5989L70.4595 76.9235L68.5771 79.6424L66.4159 82.0825L64.0456 84.2437L61.3266 85.9866L59.7929 86.6838L58.1197 87.1718L56.7253 87.5901L54.9824 87.7295L52.7515 87.5204L50.5903 87.1021L48.4291 86.2655L46.4073 85.15L44.6271 83.8951L43.2701 82.6402L42.0476 81.5247L41.0716 80.2698L40.6209 79.7121L39.3287 78.1086L38.9104 77.2023L38.1435 76.2263L37.5161 75.1108L37.2372 74.344L36.7492 73.5771L36.3309 72.3919L35.8429 71.2764L35.2154 69.6033L34.5183 67.6512L34.0302 66.0477L33.1936 62.8408L32.8823 61.5859L32.6035 60.2613L32.3943 59.2155L32.2549 58.2395L32.1155 57.2635L32.0457 56.7754L31.976 56.4269L31.7669 55.1022L31.6274 53.8474L31.4183 51.965L31.2789 50.013L31.0697 45.83L31 41.8561L31.1719 38.7886Z" fill="#5763AB"/>
<path d="M31.2789 38.3006C37.8322 55.4508 69.832 56.0783 77.7797 38.0915" stroke="black" stroke-width="3"/>
<path d="M31.1075 37.952C28.3188 104.392 80.7455 104.392 77.8872 37.952" stroke="black" stroke-width="3"/>
<path d="M31.1394 37.952H31.4183L31.488 38.3006H31.2092L31.1394 38.0915V37.952Z" fill="black"/>
<path d="M54.3232 79.4794C52.4908 79.4723 50.9141 79.0213 49.593 78.1264C48.2791 77.2315 47.267 75.9353 46.5568 74.2379C45.8537 72.5405 45.5057 70.4985 45.5128 68.1122C45.5128 65.7329 45.8643 63.7052 46.5675 62.0291C47.2777 60.353 48.2898 59.0781 49.6037 58.2045C50.9247 57.3238 52.4979 56.8835 54.3232 56.8835C56.1484 56.8835 57.718 57.3238 59.032 58.2045C60.353 59.0852 61.3686 60.3636 62.0788 62.0397C62.7891 63.7088 63.1406 65.7329 63.1335 68.1122C63.1335 70.5057 62.7784 72.5511 62.0682 74.2485C61.3651 75.946 60.3565 77.2422 59.0426 78.137C57.7287 79.0319 56.1555 79.4794 54.3232 79.4794ZM54.3232 75.6548C55.5732 75.6548 56.571 75.0262 57.3168 73.7691C58.0625 72.512 58.4318 70.6264 58.4247 68.1122C58.4247 66.4574 58.2543 65.0795 57.9134 63.9787C57.5795 62.8778 57.1037 62.0504 56.4858 61.4964C55.875 60.9424 55.1541 60.6655 54.3232 60.6655C53.0803 60.6655 52.0859 61.2869 51.3402 62.5298C50.5945 63.7727 50.218 65.6335 50.2109 68.1122C50.2109 69.7883 50.3778 71.1875 50.7116 72.3096C51.0526 73.4247 51.532 74.2628 52.1499 74.8238C52.7678 75.3778 53.4922 75.6548 54.3232 75.6548Z" fill="white"/>
<g filter="url(#filter0_d_1_173)">
<path d="M473.828 648.832L473.512 648.61L472.954 647.357L472.327 646.25L471.978 645.586L471.667 645.291L471.458 644.996V644.628L471.072 644.554L470.932 644.185L470.621 643.89L470.514 643.595L470.235 643.448L469.887 643.226V642.931L469.538 642.562L469.259 642.341L468.911 641.899L468.251 641.235L466.787 640.202L466.122 639.686L465.425 639.317L464.449 638.801L463.891 638.358L463.333 638.063L462.776 637.842L462.357 637.695L461.869 637.473L461.312 637.252L460.684 637.031L460.196 636.883L459.708 636.736L459.22 636.514L458.941 636.441L452.946 635.482L450.645 635.408L449.111 635.502L447.787 635.556L443.743 636.293L441.373 637.105L438.863 637.768L436.841 638.948L434.331 640.497L432.031 642.267L430.636 643.816L429.73 644.923L428.963 645.955L428.196 647.283L427.22 649.053V646.103L427.151 644.259V640.866L427.29 636.736L427.429 633.491L427.848 630.909L429.66 621.1L431.124 616.084L433.146 611.364L433.913 609.889L434.541 608.487L436.423 605.611L438.584 603.03L440.954 600.743L443.673 598.899L445.207 598.162L446.88 597.645L448.275 597.203L450.018 597.055L452.248 597.277L454.41 597.719L456.571 598.604L458.593 599.784L460.373 601.112L461.73 602.44L462.952 603.62L463.928 604.947L464.379 605.537L465.671 607.234L466.09 608.192L466.856 609.225L467.484 610.405L467.763 611.216L468.251 612.028L468.669 613.282L469.157 614.462L469.785 616.232L470.482 618.297L470.97 619.993L471.806 623.386L472.118 624.714L472.397 626.115L472.606 627.221L472.745 628.254L472.885 629.286L472.954 629.803L473.024 630.172L473.233 631.573L473.373 632.9L473.582 634.892L473.721 636.957L473.93 641.382L474 645.586L473.828 648.832Z" fill="#5763AB"/>
<path d="M473.721 649.348C467.168 631.204 435.168 630.54 427.22 649.569" stroke="black" stroke-width="3"/>
<path d="M451.323 629.479C449.491 629.472 447.914 629.021 446.593 628.126C445.279 627.231 444.267 625.935 443.557 624.238C442.854 622.54 442.506 620.499 442.513 618.112C442.513 615.733 442.864 613.705 443.567 612.029C444.278 610.353 445.29 609.078 446.604 608.204C447.925 607.324 449.498 606.883 451.323 606.883C453.148 606.883 454.718 607.324 456.032 608.204C457.353 609.085 458.369 610.364 459.079 612.04C459.789 613.709 460.141 615.733 460.134 618.112C460.134 620.506 459.778 622.551 459.068 624.249C458.365 625.946 457.357 627.242 456.043 628.137C454.729 629.032 453.156 629.479 451.323 629.479ZM451.323 625.655C452.573 625.655 453.571 625.026 454.317 623.769C455.063 622.512 455.432 620.626 455.425 618.112C455.425 616.457 455.254 615.079 454.913 613.979C454.58 612.878 454.104 612.05 453.486 611.496C452.875 610.942 452.154 610.665 451.323 610.665C450.08 610.665 449.086 611.287 448.34 612.53C447.594 613.773 447.218 615.633 447.211 618.112C447.211 619.788 447.378 621.187 447.712 622.31C448.053 623.425 448.532 624.263 449.15 624.824C449.768 625.378 450.492 625.655 451.323 625.655Z" fill="white"/>
<path d="M473.893 649.717C476.681 579.428 424.254 579.428 427.113 649.717" stroke="black" stroke-width="3"/>
<path d="M473.861 649.717H473.582L473.512 649.348H473.791L473.861 649.569V649.717Z" fill="black"/>
</g>
<g filter="url(#filter1_d_1_173)">
<path d="M326 54H373V154.5L366.5 160L350.37 173.5L326 185V54Z" fill="#5763AB"/>
<path d="M135 54H182V182L171 177.5L159.37 173.5L135 157V54Z" fill="#5763AB"/>
<path d="M413 108C332 233.5 158 220 97 108" stroke="#5763AB" stroke-width="7"/>
<path d="M215.332 93.2727L221.932 104.427H222.188L228.82 93.2727H236.634L226.646 109.636L236.858 126H228.9L222.188 114.83H221.932L215.221 126H207.294L217.538 109.636L207.486 93.2727H215.332ZM271.799 109.636C271.799 113.205 271.122 116.241 269.769 118.745C268.427 121.249 266.595 123.161 264.272 124.482C261.96 125.792 259.361 126.447 256.474 126.447C253.566 126.447 250.956 125.787 248.644 124.466C246.332 123.145 244.505 121.233 243.163 118.729C241.82 116.225 241.149 113.195 241.149 109.636C241.149 106.067 241.82 103.031 243.163 100.528C244.505 98.0241 246.332 96.1172 248.644 94.8068C250.956 93.4858 253.566 92.8253 256.474 92.8253C259.361 92.8253 261.96 93.4858 264.272 94.8068C266.595 96.1172 268.427 98.0241 269.769 100.528C271.122 103.031 271.799 106.067 271.799 109.636ZM264.784 109.636C264.784 107.325 264.437 105.375 263.745 103.788C263.063 102.2 262.099 100.996 260.853 100.176C259.606 99.3558 258.147 98.9457 256.474 98.9457C254.801 98.9457 253.342 99.3558 252.095 100.176C250.849 100.996 249.88 102.2 249.187 103.788C248.505 105.375 248.164 107.325 248.164 109.636C248.164 111.948 248.505 113.898 249.187 115.485C249.88 117.072 250.849 118.276 252.095 119.097C253.342 119.917 254.801 120.327 256.474 120.327C258.147 120.327 259.606 119.917 260.853 119.097C262.099 118.276 263.063 117.072 263.745 115.485C264.437 113.898 264.784 111.948 264.784 109.636ZM279.175 126V93.2727H292.086C294.558 93.2727 296.667 93.7148 298.415 94.5991C300.172 95.4727 301.509 96.7138 302.426 98.3224C303.352 99.9205 303.816 101.801 303.816 103.963C303.816 106.137 303.347 108.006 302.41 109.572C301.472 111.128 300.114 112.321 298.335 113.152C296.566 113.983 294.425 114.398 291.911 114.398H283.265V108.837H290.792C292.113 108.837 293.21 108.656 294.084 108.294C294.958 107.932 295.607 107.388 296.034 106.664C296.47 105.94 296.689 105.039 296.689 103.963C296.689 102.877 296.47 101.961 296.034 101.215C295.607 100.469 294.952 99.9045 294.068 99.521C293.194 99.1268 292.092 98.9297 290.76 98.9297H286.094V126H279.175ZM296.849 111.107L304.982 126H297.344L289.386 111.107H296.849Z" fill="#5763AB"/>
<path d="M215.332 93.2727L217.054 92.2543L216.473 91.2727H215.332V93.2727ZM221.932 104.427L220.211 105.445L220.792 106.427H221.932V104.427ZM222.188 104.427V106.427H223.326L223.907 105.449L222.188 104.427ZM228.82 93.2727V91.2727H227.682L227.101 92.2506L228.82 93.2727ZM236.634 93.2727L238.341 94.3147L240.198 91.2727H236.634V93.2727ZM226.646 109.636L224.939 108.594L224.296 109.648L224.95 110.695L226.646 109.636ZM236.858 126V128H240.463L238.554 124.941L236.858 126ZM228.9 126L227.185 127.03L227.768 128H228.9V126ZM222.188 114.83L223.902 113.8L223.319 112.83H222.188V114.83ZM221.932 114.83V112.83H220.801L220.218 113.8L221.932 114.83ZM215.221 126V128H216.352L216.935 127.03L215.221 126ZM207.294 126L205.599 124.939L203.683 128H207.294V126ZM217.538 109.636L219.233 110.698L219.891 109.646L219.242 108.59L217.538 109.636ZM207.486 93.2727V91.2727H203.91L205.782 94.3195L207.486 93.2727ZM213.611 94.2912L220.211 105.445L223.653 103.408L217.054 92.2543L213.611 94.2912ZM221.932 106.427H222.188V102.427H221.932V106.427ZM223.907 105.449L230.539 94.2948L227.101 92.2506L220.469 103.405L223.907 105.449ZM228.82 95.2727H236.634V91.2727H228.82V95.2727ZM234.927 92.2308L224.939 108.594L228.353 110.678L238.341 94.3147L234.927 92.2308ZM224.95 110.695L235.161 127.059L238.554 124.941L228.343 108.578L224.95 110.695ZM236.858 124H228.9V128H236.858V124ZM230.614 124.97L223.902 113.8L220.474 115.86L227.185 127.03L230.614 124.97ZM222.188 112.83H221.932V116.83H222.188V112.83ZM220.218 113.8L213.506 124.97L216.935 127.03L223.647 115.86L220.218 113.8ZM215.221 124H207.294V128H215.221V124ZM208.99 127.061L219.233 110.698L215.842 108.575L205.599 124.939L208.99 127.061ZM219.242 108.59L209.19 92.2259L205.782 94.3195L215.833 110.683L219.242 108.59ZM207.486 95.2727H215.332V91.2727H207.486V95.2727ZM269.769 118.745L268.01 117.794L268.007 117.8L269.769 118.745ZM264.272 124.482L265.259 126.222L265.261 126.22L264.272 124.482ZM248.644 124.466L249.636 122.729L248.644 124.466ZM243.163 118.729L241.4 119.674L243.163 118.729ZM243.163 100.528L244.925 101.473L243.163 100.528ZM248.644 94.8068L249.63 96.5468L249.636 96.5433L248.644 94.8068ZM264.272 94.8068L263.28 96.5433L263.289 96.5487L264.272 94.8068ZM269.769 100.528L268.007 101.473L268.01 101.479L269.769 100.528ZM263.745 103.788L261.907 104.577L261.912 104.587L263.745 103.788ZM260.853 100.176L259.753 101.847L260.853 100.176ZM252.095 100.176L253.195 101.847H253.195L252.095 100.176ZM249.187 103.788L247.354 102.988L247.349 102.998L249.187 103.788ZM249.187 115.485L247.349 116.274L247.354 116.285L249.187 115.485ZM252.095 119.097L253.195 117.426H253.195L252.095 119.097ZM260.853 119.097L259.753 117.426L260.853 119.097ZM263.745 115.485L261.912 114.685L261.907 114.696L263.745 115.485ZM269.799 109.636C269.799 112.956 269.17 115.648 268.01 117.794L271.529 119.696C273.075 116.835 273.799 113.454 273.799 109.636H269.799ZM268.007 117.8C266.831 119.993 265.257 121.621 263.283 122.743L265.261 126.22C267.932 124.701 270.023 122.504 271.532 119.69L268.007 117.8ZM263.286 122.742C261.301 123.867 259.046 124.447 256.474 124.447V128.447C259.676 128.447 262.62 127.717 265.259 126.222L263.286 122.742ZM256.474 124.447C253.881 124.447 251.618 123.862 249.636 122.729L247.651 126.202C250.293 127.712 253.251 128.447 256.474 128.447V124.447ZM249.636 122.729C247.672 121.607 246.102 119.98 244.925 117.784L241.4 119.674C242.907 122.485 244.992 124.683 247.651 126.202L249.636 122.729ZM244.925 117.784C243.773 115.635 243.149 112.947 243.149 109.636H239.149C239.149 113.443 239.867 116.816 241.4 119.674L244.925 117.784ZM243.149 109.636C243.149 106.314 243.774 103.62 244.925 101.473L241.4 99.5826C239.867 102.442 239.149 105.821 239.149 109.636H243.149ZM244.925 101.473C246.102 99.2782 247.67 97.6578 249.63 96.5467L247.658 93.0669C244.994 94.5765 242.908 96.7701 241.4 99.5826L244.925 101.473ZM249.636 96.5433C251.618 95.4106 253.881 94.8253 256.474 94.8253V90.8253C253.251 90.8253 250.293 91.5609 247.651 93.0703L249.636 96.5433ZM256.474 94.8253C259.043 94.8253 261.296 95.4094 263.28 96.5433L265.265 93.0703C262.625 91.5622 259.679 90.8253 256.474 90.8253V94.8253ZM263.289 96.5487C265.26 97.6604 266.831 99.2806 268.007 101.473L271.532 99.5826C270.023 96.7677 267.93 94.574 265.255 93.0649L263.289 96.5487ZM268.01 101.479C269.17 103.625 269.799 106.317 269.799 109.636H273.799C273.799 105.818 273.075 102.438 271.529 99.5768L268.01 101.479ZM266.784 109.636C266.784 107.137 266.411 104.897 265.578 102.988L261.912 104.587C262.464 105.853 262.784 107.512 262.784 109.636H266.784ZM265.583 102.998C264.771 101.109 263.575 99.5733 261.952 98.5055L259.753 101.847C260.623 102.42 261.355 103.291 261.907 104.577L265.583 102.998ZM261.952 98.5055C260.341 97.4449 258.488 96.9457 256.474 96.9457V100.946C257.805 100.946 258.872 101.267 259.753 101.847L261.952 98.5055ZM256.474 96.9457C254.459 96.9457 252.607 97.4449 250.996 98.5055L253.195 101.847C254.076 101.267 255.143 100.946 256.474 100.946V96.9457ZM250.996 98.5055C249.376 99.5714 248.176 101.104 247.354 102.988L251.02 104.587C251.583 103.297 252.322 102.422 253.195 101.847L250.996 98.5055ZM247.349 102.998C246.531 104.904 246.164 107.14 246.164 109.636H250.164C250.164 107.509 250.48 105.846 251.025 104.577L247.349 102.998ZM246.164 109.636C246.164 112.133 246.531 114.369 247.349 116.274L251.025 114.696C250.48 113.427 250.164 111.764 250.164 109.636H246.164ZM247.354 116.285C248.176 118.169 249.376 119.701 250.996 120.767L253.195 117.426C252.322 116.851 251.583 115.976 251.02 114.685L247.354 116.285ZM250.996 120.767C252.607 121.828 254.459 122.327 256.474 122.327V118.327C255.143 118.327 254.076 118.006 253.195 117.426L250.996 120.767ZM256.474 122.327C258.488 122.327 260.341 121.828 261.952 120.767L259.753 117.426C258.872 118.006 257.805 118.327 256.474 118.327V122.327ZM261.952 120.767C263.575 119.699 264.771 118.163 265.583 116.274L261.907 114.696C261.355 115.982 260.623 116.853 259.753 117.426L261.952 120.767ZM265.578 116.285C266.411 114.376 266.784 112.136 266.784 109.636H262.784C262.784 111.76 262.464 113.42 261.912 114.685L265.578 116.285ZM279.175 126H277.175V128H279.175V126ZM279.175 93.2727V91.2727H277.175V93.2727H279.175ZM298.415 94.5991L297.511 96.3836L297.518 96.3869L297.525 96.3901L298.415 94.5991ZM302.426 98.3224L300.688 99.3122L300.692 99.3191L300.696 99.3259L302.426 98.3224ZM302.41 109.572L304.123 110.605L304.126 110.6L302.41 109.572ZM298.335 113.152L297.488 111.34L297.484 111.342L298.335 113.152ZM283.265 114.398H281.265V116.398H283.265V114.398ZM283.265 108.837V106.837H281.265V108.837H283.265ZM294.084 108.294L294.85 110.142V110.142L294.084 108.294ZM296.034 106.664L294.321 105.631L294.315 105.641L294.31 105.65L296.034 106.664ZM296.034 101.215L294.297 102.207L294.302 102.216L294.308 102.226L296.034 101.215ZM294.068 99.521L293.245 101.344L293.259 101.35L293.272 101.356L294.068 99.521ZM286.094 98.9297V96.9297H284.094V98.9297H286.094ZM286.094 126V128H288.094V126H286.094ZM296.849 111.107L298.604 110.148L298.035 109.107H296.849V111.107ZM304.982 126V128H308.354L306.738 125.041L304.982 126ZM297.344 126L295.58 126.943L296.145 128H297.344V126ZM289.386 111.107V109.107H286.05L287.622 112.049L289.386 111.107ZM281.175 126V93.2727H277.175V126H281.175ZM279.175 95.2727H292.086V91.2727H279.175V95.2727ZM292.086 95.2727C294.324 95.2727 296.108 95.6733 297.511 96.3836L299.318 92.8146C297.227 91.7564 294.792 91.2727 292.086 91.2727V95.2727ZM297.525 96.3901C298.949 97.098 299.98 98.0703 300.688 99.3122L304.164 97.3326C303.038 95.3573 301.396 93.8473 299.305 92.8081L297.525 96.3901ZM300.696 99.3259C301.417 100.571 301.816 102.093 301.816 103.963H305.816C305.816 101.509 305.287 99.2704 304.156 97.319L300.696 99.3259ZM301.816 103.963C301.816 105.844 301.413 107.344 300.694 108.545L304.126 110.6C305.282 108.669 305.816 106.429 305.816 103.963H301.816ZM300.697 108.54C299.981 109.727 298.938 110.663 297.488 111.34L299.181 114.964C301.289 113.979 302.963 112.528 304.123 110.605L300.697 108.54ZM297.484 111.342C296.047 112.017 294.212 112.398 291.911 112.398V116.398C294.638 116.398 297.086 115.949 299.185 114.962L297.484 111.342ZM291.911 112.398H283.265V116.398H291.911V112.398ZM285.265 114.398V108.837H281.265V114.398H285.265ZM283.265 110.837H290.792V106.837H283.265V110.837ZM290.792 110.837C292.279 110.837 293.658 110.636 294.85 110.142L293.318 106.447C292.763 106.677 291.947 106.837 290.792 106.837V110.837ZM294.85 110.142C296.072 109.635 297.084 108.823 297.757 107.678L294.31 105.65C294.131 105.954 293.843 106.229 293.318 106.447L294.85 110.142ZM297.746 107.697C298.416 106.586 298.689 105.306 298.689 103.963H294.689C294.689 104.773 294.525 105.293 294.321 105.631L297.746 107.697ZM298.689 103.963C298.689 102.612 298.416 101.326 297.759 100.204L294.308 102.226C294.524 102.595 294.689 103.142 294.689 103.963H298.689ZM297.77 100.223C297.104 99.0564 296.094 98.2195 294.864 97.6861L293.272 101.356C293.811 101.589 294.111 101.882 294.297 102.207L297.77 100.223ZM294.891 97.6979C293.678 97.151 292.272 96.9297 290.76 96.9297V100.93C291.912 100.93 292.71 101.103 293.245 101.344L294.891 97.6979ZM290.76 96.9297H286.094V100.93H290.76V96.9297ZM284.094 98.9297V126H288.094V98.9297H284.094ZM286.094 124H279.175V128H286.094V124ZM295.093 112.065L303.227 126.959L306.738 125.041L298.604 110.148L295.093 112.065ZM304.982 124H297.344V128H304.982V124ZM299.108 125.057L291.15 110.164L287.622 112.049L295.58 126.943L299.108 125.057ZM289.386 113.107H296.849V109.107H289.386V113.107Z" fill="black"/>
</g>
<g filter="url(#filter2_d_1_173)">
<path d="M229.346 569.5V470H289.346V569.5V571H290.846H314.484L260.811 630.794L203.515 571H227.846H229.346V569.5Z" fill="#5763AB" stroke="black" stroke-width="3"/>
<path d="M87.2326 128L89.5 129.5L93.5 138L98 145.5L100.5 150L102.733 152L104.233 154V156.5L107 157L108 159.5L110.233 161.5L111 163.5L113 164.5L115.5 166V168L118 170.5L120 172L122.5 175L127.233 179.5L137.733 186.5L142.5 190L147.5 192.5L154.5 196L158.5 199L162.5 201L166.5 202.5L169.5 203.5L173 205L177 206.5L181.5 208L185 209L188.5 210L192 211.5L194 212L237 218.5L253.5 219L264.5 218.364L274 218L303 213L320 207.5L338 203L352.5 195L370.5 184.5L387 172.5L397 162L403.5 154.5L409 147.5L414.5 138.5L421.5 126.5V146.5L422 159V182L421 210L420 232L417 249.5L404 316L393.5 350L379 382L373.5 392L369 401.5L355.5 421L340 438.5L323 454L303.5 466.5L292.5 471.5L280.5 475L270.5 478L258 479L242 477.5L226.5 474.5L211 468.5L196.5 460.5L183.733 451.5L174 442.5L165.233 434.5L158.233 425.5L155 421.5L145.733 410L142.733 403.5L137.233 396.5L132.733 388.5L130.733 383L127.233 377.5L124.233 369L120.733 361L116.233 349L111.233 335L107.733 323.5L101.733 300.5L99.5 291.5L97.5 282L96 274.5L95 267.5L94 260.5L93.5 257L93 254.5L91.5 245L90.5 236L89 222.5L88 208.5L86.5 178.5L86 150L87.2326 128Z" fill="#5763AB"/>
<path d="M88 124.5C135 247.5 364.5 252 421.5 123" stroke="black" stroke-width="3"/>
<path d="M86.7708 122C66.7709 598.5 442.771 598.5 422.271 122" stroke="black" stroke-width="3"/>
<path d="M230.863 471.607H287.863V472.892L287.5 488.5L231.344 480.497L230.844 477.997V475.997L230.863 471.607Z" fill="#5763AB"/>
<path d="M258.026 436.995C242.756 436.936 229.617 433.178 218.609 425.72C207.659 418.263 199.225 407.461 193.307 393.316C187.447 379.171 184.547 362.155 184.607 342.268C184.607 322.441 187.536 305.544 193.396 291.576C199.314 277.608 207.748 266.984 218.697 259.705C229.706 252.366 242.816 248.696 258.026 248.696C273.237 248.696 286.317 252.366 297.266 259.705C308.275 267.044 316.738 277.697 322.657 291.665C328.576 305.573 331.505 322.441 331.446 342.268C331.446 362.214 328.487 379.259 322.568 393.405C316.709 407.55 308.304 418.352 297.355 425.809C286.406 433.266 273.296 436.995 258.026 436.995ZM258.026 405.124C268.443 405.124 276.759 399.886 282.973 389.41C289.188 378.934 292.265 363.22 292.206 342.268C292.206 328.478 290.786 316.996 287.945 307.822C285.163 298.649 281.197 291.754 276.048 287.137C270.958 282.521 264.951 280.212 258.026 280.212C247.669 280.212 239.383 285.391 233.168 295.749C226.954 306.106 223.817 321.613 223.758 342.268C223.758 356.236 225.149 367.896 227.93 377.247C230.771 386.539 234.766 393.523 239.915 398.199C245.065 402.815 251.102 405.124 258.026 405.124Z" fill="black"/>
<path d="M258.026 436.995L258.007 441.995L258.017 441.995H258.026V436.995ZM218.609 425.72L215.794 429.853L215.804 429.86L218.609 425.72ZM193.307 393.316L188.687 395.23L188.691 395.238L188.694 395.246L193.307 393.316ZM184.607 342.268L189.607 342.283L189.607 342.276V342.268H184.607ZM193.396 291.576L188.792 289.625L188.788 289.634L188.785 289.642L193.396 291.576ZM218.697 259.705L221.466 263.868L221.471 263.865L218.697 259.705ZM297.266 259.705L294.482 263.858L294.493 263.865L297.266 259.705ZM322.657 291.665L318.053 293.616L318.056 293.623L322.657 291.665ZM331.446 342.268L326.446 342.254L326.446 342.261V342.268H331.446ZM322.568 393.405L317.956 391.475L317.952 391.483L317.949 391.491L322.568 393.405ZM297.355 425.809L300.17 429.941L297.355 425.809ZM282.973 389.41L287.273 391.961H287.273L282.973 389.41ZM292.206 342.268H287.206L287.206 342.283L292.206 342.268ZM287.945 307.822L283.16 309.273L283.164 309.287L283.168 309.302L287.945 307.822ZM276.048 287.137L272.689 290.841L272.7 290.85L272.711 290.86L276.048 287.137ZM233.168 295.749L228.881 293.176L233.168 295.749ZM223.758 342.268L218.758 342.254L218.758 342.261V342.268H223.758ZM227.93 377.247L223.138 378.673L223.143 378.691L223.149 378.709L227.93 377.247ZM239.915 398.199L236.554 401.9L236.566 401.911L236.578 401.922L239.915 398.199ZM258.046 431.995C243.617 431.939 231.482 428.402 221.413 421.581L215.804 429.86C227.752 437.954 241.896 441.933 258.007 441.995L258.046 431.995ZM221.423 421.588C211.394 414.757 203.525 404.783 197.919 391.386L188.694 395.246C194.926 410.14 203.925 421.769 215.794 429.853L221.423 421.588ZM197.926 391.403C192.383 378.021 189.549 361.697 189.607 342.283L179.607 342.254C179.546 362.613 182.511 380.32 188.687 395.23L197.926 391.403ZM189.607 342.268C189.607 322.91 192.47 306.708 198.006 293.51L188.785 289.642C182.602 304.38 179.607 321.972 179.607 342.268H189.607ZM197.999 293.527C203.596 280.318 211.451 270.526 221.466 263.868L215.929 255.541C204.045 263.442 195.032 274.898 188.792 289.625L197.999 293.527ZM221.471 263.865C231.54 257.152 243.651 253.696 258.026 253.696V243.696C241.98 243.696 227.872 247.579 215.924 255.544L221.471 263.865ZM258.026 253.696C272.402 253.696 284.478 257.152 294.482 263.858L300.05 255.551C288.156 247.579 274.072 243.696 258.026 243.696V253.696ZM294.493 263.865C304.574 270.586 312.458 280.412 318.053 293.616L327.261 289.714C321.018 274.982 311.976 263.501 300.04 255.544L294.493 263.865ZM318.056 293.623C323.641 306.746 326.504 322.903 326.446 342.254L336.446 342.283C336.507 321.98 333.511 304.401 327.258 289.707L318.056 293.623ZM326.446 342.268C326.446 361.741 323.554 378.095 317.956 391.475L327.181 395.335C333.419 380.424 336.446 362.687 336.446 342.268H326.446ZM317.949 391.491C312.403 404.881 304.566 414.849 294.541 421.676L300.17 429.941C312.043 421.855 321.015 410.22 327.188 395.318L317.949 391.491ZM294.541 421.676C284.543 428.486 272.45 431.995 258.026 431.995V441.995C274.142 441.995 288.269 438.047 300.17 429.941L294.541 421.676ZM258.026 410.124C270.536 410.124 280.339 403.65 287.273 391.961L278.673 386.859C273.178 396.121 266.35 400.124 258.026 400.124V410.124ZM287.273 391.961C294.171 380.333 297.266 363.538 297.206 342.254L287.206 342.283C287.264 362.902 284.204 377.535 278.673 386.859L287.273 391.961ZM297.206 342.268C297.206 328.176 295.759 316.155 292.721 306.343L283.168 309.302C285.812 317.838 287.206 328.781 287.206 342.268H297.206ZM292.729 306.372C289.78 296.646 285.431 288.833 279.386 283.414L272.711 290.86C276.964 294.674 280.545 300.651 283.16 309.273L292.729 306.372ZM279.407 283.433C273.39 277.976 266.182 275.212 258.026 275.212V285.212C263.72 285.212 268.527 287.066 272.689 290.841L279.407 283.433ZM258.026 275.212C245.593 275.212 235.821 281.609 228.881 293.176L237.456 298.321C242.944 289.174 249.745 285.212 258.026 285.212V275.212ZM228.881 293.176C221.98 304.677 218.818 321.26 218.758 342.254L228.758 342.283C228.816 321.965 231.928 307.535 237.456 298.321L228.881 293.176ZM218.758 342.268C218.758 356.529 220.173 368.707 223.138 378.673L232.723 375.822C230.124 367.085 228.758 355.943 228.758 342.268H218.758ZM223.149 378.709C226.153 388.536 230.525 396.426 236.554 401.9L243.277 394.497C239.008 390.621 235.389 384.542 232.712 375.785L223.149 378.709ZM236.578 401.922C242.645 407.362 249.871 410.124 258.026 410.124V400.124C252.332 400.124 247.484 398.269 243.253 394.476L236.578 401.922Z" fill="white"/>
</g>
<defs>
<filter id="filter0_d_1_173" x="419.5" y="595.5" width="58" height="62.6473" filterUnits="userSpaceOnUse" color-interpolation-filters="sRGB">
<feFlood flood-opacity="0" result="BackgroundImageFix"/>
<feColorMatrix in="SourceAlpha" type="matrix" values="0 0 0 0 0 0 0 0 0 0 0 0 0 0 0 0 0 0 127 0" result="hardAlpha"/>
<feOffset dx="-2" dy="4"/>
<feGaussianBlur stdDeviation="2"/>
<feComposite in2="hardAlpha" operator="out"/>
<feColorMatrix type="matrix" values="0 0 0 0 0 0 0 0 0 0 0 0 0 0 0 0 0 0 0.3 0"/>
<feBlend mode="normal" in2="BackgroundImageFix" result="effect1_dropShadow_1_173"/>
<feBlend mode="normal" in="SourceGraphic" in2="effect1_dropShadow_1_173" result="shape"/>
</filter>
<filter id="filter1_d_1_173" x="87.9263" y="54" width="330.014" height="154.634" filterUnits="userSpaceOnUse" color-interpolation-filters="sRGB">
<feFlood flood-opacity="0" result="BackgroundImageFix"/>
<feColorMatrix in="SourceAlpha" type="matrix" values="0 0 0 0 0 0 0 0 0 0 0 0 0 0 0 0 0 0 127 0" result="hardAlpha"/>
<feOffset dx="-2" dy="4"/>
<feGaussianBlur stdDeviation="2"/>
<feComposite in2="hardAlpha" operator="out"/>
<feColorMatrix type="matrix" values="0 0 0 0 0 0 0 0 0 0 0 0 0 0 0 0 0 0 0.3 0"/>
<feBlend mode="normal" in2="BackgroundImageFix" result="effect1_dropShadow_1_173"/>
<feBlend mode="normal" in="SourceGraphic" in2="effect1_dropShadow_1_173" result="shape"/>
</filter>
<filter id="filter2_d_1_173" x="78.5" y="121.936" width="348.08" height="519.064" filterUnits="userSpaceOnUse" color-interpolation-filters="sRGB">
<feFlood flood-opacity="0" result="BackgroundImageFix"/>
<feColorMatrix in="SourceAlpha" type="matrix" values="0 0 0 0 0 0 0 0 0 0 0 0 0 0 0 0 0 0 127 0" result="hardAlpha"/>
<feOffset dx="-2" dy="4"/>
<feGaussianBlur stdDeviation="2"/>
<feComposite in2="hardAlpha" operator="out"/>
<feColorMatrix type="matrix" values="0 0 0 0 0 0 0 0 0 0 0 0 0 0 0 0 0 0 0.3 0"/>
<feBlend mode="normal" in2="BackgroundImageFix" result="effect1_dropShadow_1_173"/>
<feBlend mode="normal" in="SourceGraphic" in2="effect1_dropShadow_1_173" result="shape"/>
</filter>
</defs>
</svg>
