<svg width="508" height="677" viewBox="0 0 508 677" fill="none" xmlns="http://www.w3.org/2000/svg">
<rect x="8.5" y="8.5" width="491" height="660" rx="31.5" fill="#D2A628" stroke="black" stroke-width="17"/>
<path d="M86 118H88L88.5 120.5H86.5L86 119V118Z" fill="black"/>
<path d="M30.1719 34.7886L30.488 34.9978L31.0457 36.183L31.6732 37.2287L32.0218 37.8562L32.3331 38.135L32.5422 38.4139V38.7625L32.9281 38.8322L33.0675 39.1808L33.3788 39.4596L33.4858 39.7385L33.7647 39.8779L34.1133 40.0871V40.366L34.4618 40.7145L34.7407 40.9237L35.0893 41.342L35.7492 41.9694L37.2132 42.9455L37.878 43.4335L38.5751 43.7821L39.5511 44.2701L40.1089 44.6884L40.6666 44.9672L41.2243 45.1764L41.6426 45.3158L42.1306 45.525L42.6884 45.7341L43.3158 45.9433L43.8038 46.0827L44.2919 46.2221L44.7799 46.4313L45.0587 46.501L51.0543 47.4073L53.355 47.477L54.8887 47.3883L56.2134 47.3376L60.2569 46.6404L62.6273 45.8736L65.1371 45.2461L67.1588 44.1306L69.6686 42.6666L71.9693 40.9934L73.3636 39.5294L74.2699 38.4836L75.0368 37.5076L75.8037 36.2527L76.7797 34.5795V37.3682L76.8494 39.1111V42.318L76.71 46.2221L76.5705 49.2897L76.1522 51.7297L74.3396 61.002L72.8756 65.7427L70.8538 70.2046L70.0869 71.5989L69.4595 72.9235L67.5771 75.6424L65.4159 78.0825L63.0456 80.2437L60.3266 81.9866L58.7929 82.6838L57.1197 83.1718L55.7253 83.5901L53.9824 83.7295L51.7515 83.5204L49.5903 83.1021L47.4291 82.2655L45.4073 81.15L43.6271 79.8951L42.2701 78.6402L41.0476 77.5248L40.0716 76.2699L39.6209 75.7122L38.3287 74.1087L37.9104 73.2024L37.1435 72.2263L36.5161 71.1109L36.2372 70.344L35.7492 69.5771L35.3309 68.3919L34.8429 67.2765L34.2154 65.6033L33.5183 63.6512L33.0302 62.0478L32.1936 58.8408L31.8823 57.5859L31.6035 56.2613L31.3943 55.2155L31.2549 54.2395L31.1155 53.2635L31.0457 52.7755L30.976 52.4269L30.7669 51.1023L30.6274 49.8474L30.4183 47.965L30.2789 46.013L30.0697 41.83L30 37.8562L30.1719 34.7886Z" fill="#5763AB"/>
<path d="M30.2789 34.3006C36.8322 51.4509 68.832 52.0783 76.7797 34.0915" stroke="black" stroke-width="3"/>
<path d="M30.1075 33.9521C27.3188 100.392 79.7455 100.392 76.8872 33.9521" stroke="black" stroke-width="3"/>
<path d="M30.1394 33.9521H30.4183L30.488 34.3006H30.2092L30.1394 34.0915V33.9521Z" fill="black"/>
<path d="M48.0526 59.0521C48.0236 56.2704 50.2706 54 53.0523 54H53.318C56.0794 54 58.318 56.2386 58.318 59V71.5C58.318 74.2614 56.0794 76.5 53.318 76.5H53.1825C50.4414 76.5 48.2113 74.293 48.1828 71.5521L48.0526 59.0521Z" fill="white"/>
<g filter="url(#filter0_d_1_91)">
<path d="M472.828 644.832L472.512 644.61L471.954 643.357L471.327 642.25L470.978 641.586L470.667 641.291L470.458 640.996V640.628L470.072 640.554L469.932 640.185L469.621 639.89L469.514 639.595L469.235 639.448L468.887 639.226V638.931L468.538 638.562L468.259 638.341L467.911 637.899L467.251 637.235L465.787 636.202L465.122 635.686L464.425 635.317L463.449 634.801L462.891 634.358L462.333 634.063L461.776 633.842L461.357 633.695L460.869 633.473L460.312 633.252L459.684 633.031L459.196 632.883L458.708 632.736L458.22 632.515L457.941 632.441L451.946 631.482L449.645 631.408L448.111 631.502L446.787 631.556L442.743 632.293L440.373 633.105L437.863 633.768L435.841 634.948L433.331 636.497L431.031 638.267L429.636 639.816L428.73 640.923L427.963 641.955L427.196 643.283L426.22 645.053V642.103L426.151 640.259V636.866L426.29 632.736L426.429 629.491L426.848 626.909L428.66 617.1L430.124 612.084L432.146 607.364L432.913 605.889L433.541 604.487L435.423 601.611L437.584 599.03L439.954 596.743L442.673 594.899L444.207 594.162L445.88 593.645L447.275 593.203L449.018 593.055L451.248 593.277L453.41 593.719L455.571 594.604L457.593 595.784L459.373 597.112L460.73 598.44L461.952 599.62L462.928 600.947L463.379 601.537L464.671 603.234L465.09 604.192L465.856 605.225L466.484 606.405L466.763 607.216L467.251 608.028L467.669 609.282L468.157 610.462L468.785 612.232L469.482 614.297L469.97 615.993L470.806 619.386L471.118 620.714L471.397 622.115L471.606 623.221L471.745 624.254L471.885 625.286L471.954 625.803L472.024 626.172L472.233 627.573L472.373 628.901L472.582 630.892L472.721 632.957L472.93 637.382L473 641.586L472.828 644.832Z" fill="#5763AB"/>
<path d="M472.721 645.348C466.168 627.204 434.168 626.54 426.22 645.569" stroke="black" stroke-width="3"/>
<path d="M472.893 645.717C475.681 575.428 423.254 575.428 426.113 645.717" stroke="black" stroke-width="3"/>
<path d="M472.861 645.717H472.582L472.512 645.348H472.791L472.861 645.569V645.717Z" fill="black"/>
<path d="M454.818 621.123C454.818 623.885 452.579 626.123 449.818 626.123H449.5C446.739 626.123 444.5 623.885 444.5 621.123V607.5C444.5 604.739 446.739 602.5 449.5 602.5H449.818C452.579 602.5 454.818 604.739 454.818 607.5V621.123Z" fill="white"/>
</g>
<g filter="url(#filter1_d_1_91)">
<path d="M325 50H372V150.5L365.5 156L349.37 169.5L325 181V50Z" fill="#5763AB"/>
<path d="M134 50H181V178L170 173.5L158.37 169.5L134 153V50Z" fill="#5763AB"/>
<path d="M412 104C331 229.5 157 216 96 104" stroke="#5763AB" stroke-width="7"/>
<path d="M214.332 89.2727L220.932 100.427H221.188L227.82 89.2727H235.634L225.646 105.636L235.858 122H227.9L221.188 110.83H220.932L214.221 122H206.294L216.538 105.636L206.486 89.2727H214.332ZM270.799 105.636C270.799 109.205 270.122 112.241 268.769 114.745C267.427 117.249 265.595 119.161 263.272 120.482C260.96 121.792 258.361 122.447 255.474 122.447C252.566 122.447 249.956 121.787 247.644 120.466C245.332 119.145 243.505 117.233 242.163 114.729C240.82 112.225 240.149 109.195 240.149 105.636C240.149 102.067 240.82 99.0312 242.163 96.5277C243.505 94.0241 245.332 92.1172 247.644 90.8068C249.956 89.4858 252.566 88.8253 255.474 88.8253C258.361 88.8253 260.96 89.4858 263.272 90.8068C265.595 92.1172 267.427 94.0241 268.769 96.5277C270.122 99.0312 270.799 102.067 270.799 105.636ZM263.784 105.636C263.784 103.325 263.437 101.375 262.745 99.7876C262.063 98.2003 261.099 96.9964 259.853 96.1761C258.606 95.3558 257.147 94.9457 255.474 94.9457C253.801 94.9457 252.342 95.3558 251.095 96.1761C249.849 96.9964 248.88 98.2003 248.187 99.7876C247.505 101.375 247.164 103.325 247.164 105.636C247.164 107.948 247.505 109.898 248.187 111.485C248.88 113.072 249.849 114.276 251.095 115.097C252.342 115.917 253.801 116.327 255.474 116.327C257.147 116.327 258.606 115.917 259.853 115.097C261.099 114.276 262.063 113.072 262.745 111.485C263.437 109.898 263.784 107.948 263.784 105.636ZM278.175 122V89.2727H291.086C293.558 89.2727 295.667 89.7148 297.415 90.5991C299.172 91.4727 300.509 92.7138 301.426 94.3224C302.352 95.9205 302.816 97.8008 302.816 99.9634C302.816 102.137 302.347 104.006 301.41 105.572C300.472 107.128 299.114 108.321 297.335 109.152C295.566 109.983 293.425 110.398 290.911 110.398H282.265V104.837H289.792C291.113 104.837 292.21 104.656 293.084 104.294C293.958 103.932 294.607 103.388 295.034 102.664C295.47 101.94 295.689 101.039 295.689 99.9634C295.689 98.8768 295.47 97.9606 295.034 97.2148C294.607 96.4691 293.952 95.9045 293.068 95.521C292.194 95.1268 291.092 94.9297 289.76 94.9297H285.094V122H278.175ZM295.849 107.107L303.982 122H296.344L288.386 107.107H295.849Z" fill="#5763AB"/>
<path d="M214.332 89.2727L216.054 88.2543L215.473 87.2727H214.332V89.2727ZM220.932 100.427L219.211 101.445L219.792 102.427H220.932V100.427ZM221.188 100.427V102.427H222.326L222.907 101.449L221.188 100.427ZM227.82 89.2727V87.2727H226.682L226.101 88.2506L227.82 89.2727ZM235.634 89.2727L237.341 90.3147L239.198 87.2727H235.634V89.2727ZM225.646 105.636L223.939 104.594L223.296 105.648L223.95 106.695L225.646 105.636ZM235.858 122V124H239.463L237.554 120.941L235.858 122ZM227.9 122L226.185 123.03L226.768 124H227.9V122ZM221.188 110.83L222.902 109.8L222.319 108.83H221.188V110.83ZM220.932 110.83V108.83H219.801L219.218 109.8L220.932 110.83ZM214.221 122V124H215.352L215.935 123.03L214.221 122ZM206.294 122L204.599 120.939L202.683 124H206.294V122ZM216.538 105.636L218.233 106.698L218.891 105.646L218.242 104.59L216.538 105.636ZM206.486 89.2727V87.2727H202.91L204.782 90.3195L206.486 89.2727ZM212.611 90.2912L219.211 101.445L222.653 99.4084L216.054 88.2543L212.611 90.2912ZM220.932 102.427H221.188V98.4268H220.932V102.427ZM222.907 101.449L229.539 90.2948L226.101 88.2506L219.469 99.4047L222.907 101.449ZM227.82 91.2727H235.634V87.2727H227.82V91.2727ZM233.927 88.2308L223.939 104.594L227.353 106.678L237.341 90.3147L233.927 88.2308ZM223.95 106.695L234.161 123.059L237.554 120.941L227.343 104.578L223.95 106.695ZM235.858 120H227.9V124H235.858V120ZM229.614 120.97L222.902 109.8L219.474 111.86L226.185 123.03L229.614 120.97ZM221.188 108.83H220.932V112.83H221.188V108.83ZM219.218 109.8L212.506 120.97L215.935 123.03L222.647 111.86L219.218 109.8ZM214.221 120H206.294V124H214.221V120ZM207.99 123.061L218.233 106.698L214.842 104.575L204.599 120.939L207.99 123.061ZM218.242 104.59L208.19 88.2259L204.782 90.3195L214.833 106.683L218.242 104.59ZM206.486 91.2727H214.332V87.2727H206.486V91.2727ZM268.769 114.745L267.01 113.794L267.007 113.8L268.769 114.745ZM263.272 120.482L264.259 122.222L264.261 122.22L263.272 120.482ZM247.644 120.466L248.636 118.729L247.644 120.466ZM242.163 114.729L240.4 115.674L242.163 114.729ZM242.163 96.5277L243.925 97.4728L242.163 96.5277ZM247.644 90.8068L248.63 92.5468L248.636 92.5433L247.644 90.8068ZM263.272 90.8068L262.28 92.5433L262.289 92.5487L263.272 90.8068ZM268.769 96.5277L267.007 97.4728L267.01 97.4786L268.769 96.5277ZM262.745 99.7876L260.907 100.577L260.912 100.587L262.745 99.7876ZM259.853 96.1761L258.753 97.8468L259.853 96.1761ZM251.095 96.1761L252.195 97.8468H252.195L251.095 96.1761ZM248.187 99.7876L246.354 98.9879L246.349 98.9983L248.187 99.7876ZM248.187 111.485L246.349 112.274L246.354 112.285L248.187 111.485ZM251.095 115.097L252.195 113.426H252.195L251.095 115.097ZM259.853 115.097L258.753 113.426L259.853 115.097ZM262.745 111.485L260.912 110.685L260.907 110.696L262.745 111.485ZM268.799 105.636C268.799 108.956 268.17 111.648 267.01 113.794L270.529 115.696C272.075 112.835 272.799 109.454 272.799 105.636H268.799ZM267.007 113.8C265.831 115.993 264.257 117.621 262.283 118.743L264.261 122.22C266.932 120.701 269.023 118.504 270.532 115.69L267.007 113.8ZM262.286 118.742C260.301 119.867 258.046 120.447 255.474 120.447V124.447C258.676 124.447 261.62 123.717 264.259 122.222L262.286 118.742ZM255.474 120.447C252.881 120.447 250.618 119.862 248.636 118.729L246.651 122.202C249.293 123.712 252.251 124.447 255.474 124.447V120.447ZM248.636 118.729C246.672 117.607 245.102 115.98 243.925 113.784L240.4 115.674C241.907 118.485 243.992 120.683 246.651 122.202L248.636 118.729ZM243.925 113.784C242.773 111.635 242.149 108.947 242.149 105.636H238.149C238.149 109.443 238.867 112.816 240.4 115.674L243.925 113.784ZM242.149 105.636C242.149 102.314 242.774 99.6205 243.925 97.4728L240.4 95.5826C238.867 98.442 238.149 101.821 238.149 105.636H242.149ZM243.925 97.4728C245.102 95.2782 246.67 93.6578 248.63 92.5467L246.658 89.0669C243.994 90.5765 241.908 92.7701 240.4 95.5826L243.925 97.4728ZM248.636 92.5433C250.618 91.4106 252.881 90.8253 255.474 90.8253V86.8253C252.251 86.8253 249.293 87.5609 246.651 89.0703L248.636 92.5433ZM255.474 90.8253C258.043 90.8253 260.296 91.4094 262.28 92.5433L264.265 89.0703C261.625 87.5622 258.679 86.8253 255.474 86.8253V90.8253ZM262.289 92.5487C264.26 93.6604 265.831 95.2806 267.007 97.4728L270.532 95.5826C269.023 92.7677 266.93 90.574 264.255 89.0649L262.289 92.5487ZM267.01 97.4786C268.17 99.625 268.799 102.317 268.799 105.636H272.799C272.799 101.818 272.075 98.4375 270.529 95.5768L267.01 97.4786ZM265.784 105.636C265.784 103.137 265.411 100.897 264.578 98.9879L260.912 100.587C261.464 101.853 261.784 103.512 261.784 105.636H265.784ZM264.583 98.9983C263.771 97.1094 262.575 95.5733 260.952 94.5055L258.753 97.8468C259.623 98.4196 260.355 99.2911 260.907 100.577L264.583 98.9983ZM260.952 94.5055C259.341 93.4449 257.488 92.9457 255.474 92.9457V96.9457C256.805 96.9457 257.872 97.2667 258.753 97.8468L260.952 94.5055ZM255.474 92.9457C253.459 92.9457 251.607 93.4449 249.996 94.5055L252.195 97.8468C253.076 97.2667 254.143 96.9457 255.474 96.9457V92.9457ZM249.996 94.5055C248.376 95.5714 247.176 97.1037 246.354 98.9879L250.02 100.587C250.583 99.2969 251.322 98.4215 252.195 97.8468L249.996 94.5055ZM246.349 98.9983C245.531 100.904 245.164 103.14 245.164 105.636H249.164C249.164 103.509 249.48 101.846 250.025 100.577L246.349 98.9983ZM245.164 105.636C245.164 108.133 245.531 110.369 246.349 112.274L250.025 110.696C249.48 109.427 249.164 107.764 249.164 105.636H245.164ZM246.354 112.285C247.176 114.169 248.376 115.701 249.996 116.767L252.195 113.426C251.322 112.851 250.583 111.976 250.02 110.685L246.354 112.285ZM249.996 116.767C251.607 117.828 253.459 118.327 255.474 118.327V114.327C254.143 114.327 253.076 114.006 252.195 113.426L249.996 116.767ZM255.474 118.327C257.488 118.327 259.341 117.828 260.952 116.767L258.753 113.426C257.872 114.006 256.805 114.327 255.474 114.327V118.327ZM260.952 116.767C262.575 115.699 263.771 114.163 264.583 112.274L260.907 110.696C260.355 111.982 259.623 112.853 258.753 113.426L260.952 116.767ZM264.578 112.285C265.411 110.376 265.784 108.136 265.784 105.636H261.784C261.784 107.76 261.464 109.42 260.912 110.685L264.578 112.285ZM278.175 122H276.175V124H278.175V122ZM278.175 89.2727V87.2727H276.175V89.2727H278.175ZM297.415 90.5991L296.511 92.3836L296.518 92.3869L296.525 92.3901L297.415 90.5991ZM301.426 94.3224L299.688 95.3122L299.692 95.3191L299.696 95.3259L301.426 94.3224ZM301.41 105.572L303.123 106.605L303.126 106.6L301.41 105.572ZM297.335 109.152L296.488 107.34L296.484 107.342L297.335 109.152ZM282.265 110.398H280.265V112.398H282.265V110.398ZM282.265 104.837V102.837H280.265V104.837H282.265ZM293.084 104.294L293.85 106.142V106.142L293.084 104.294ZM295.034 102.664L293.321 101.631L293.315 101.641L293.31 101.65L295.034 102.664ZM295.034 97.2148L293.297 98.2071L293.302 98.2164L293.308 98.2257L295.034 97.2148ZM293.068 95.521L292.245 97.344L292.259 97.35L292.272 97.3558L293.068 95.521ZM285.094 94.9297V92.9297H283.094V94.9297H285.094ZM285.094 122V124H287.094V122H285.094ZM295.849 107.107L297.604 106.148L297.035 105.107H295.849V107.107ZM303.982 122V124H307.354L305.738 121.041L303.982 122ZM296.344 122L294.58 122.943L295.145 124H296.344V122ZM288.386 107.107V105.107H285.05L286.622 108.049L288.386 107.107ZM280.175 122V89.2727H276.175V122H280.175ZM278.175 91.2727H291.086V87.2727H278.175V91.2727ZM291.086 91.2727C293.324 91.2727 295.108 91.6733 296.511 92.3836L298.318 88.8146C296.227 87.7564 293.792 87.2727 291.086 87.2727V91.2727ZM296.525 92.3901C297.949 93.098 298.98 94.0703 299.688 95.3122L303.164 93.3326C302.038 91.3573 300.396 89.8473 298.305 88.8081L296.525 92.3901ZM299.696 95.3259C300.417 96.5705 300.816 98.0925 300.816 99.9634H304.816C304.816 97.5091 304.287 95.2704 303.156 93.319L299.696 95.3259ZM300.816 99.9634C300.816 101.844 300.413 103.344 299.694 104.545L303.126 106.6C304.282 104.669 304.816 102.429 304.816 99.9634H300.816ZM299.697 104.54C298.981 105.727 297.938 106.663 296.488 107.34L298.181 110.964C300.289 109.979 301.963 108.528 303.123 106.605L299.697 104.54ZM296.484 107.342C295.047 108.017 293.212 108.398 290.911 108.398V112.398C293.638 112.398 296.086 111.949 298.185 110.962L296.484 107.342ZM290.911 108.398H282.265V112.398H290.911V108.398ZM284.265 110.398V104.837H280.265V110.398H284.265ZM282.265 106.837H289.792V102.837H282.265V106.837ZM289.792 106.837C291.279 106.837 292.658 106.636 293.85 106.142L292.318 102.447C291.763 102.677 290.947 102.837 289.792 102.837V106.837ZM293.85 106.142C295.072 105.635 296.084 104.823 296.757 103.678L293.31 101.65C293.131 101.954 292.843 102.229 292.318 102.447L293.85 106.142ZM296.746 103.697C297.416 102.586 297.689 101.306 297.689 99.9634H293.689C293.689 100.773 293.525 101.293 293.321 101.631L296.746 103.697ZM297.689 99.9634C297.689 98.6117 297.416 97.3259 296.759 96.204L293.308 98.2257C293.524 98.5953 293.689 99.1418 293.689 99.9634H297.689ZM296.77 96.2226C296.104 95.0564 295.094 94.2195 293.864 93.6861L292.272 97.3558C292.811 97.5894 293.111 97.8818 293.297 98.2071L296.77 96.2226ZM293.891 93.6979C292.678 93.151 291.272 92.9297 289.76 92.9297V96.9297C290.912 96.9297 291.71 97.1026 292.245 97.344L293.891 93.6979ZM289.76 92.9297H285.094V96.9297H289.76V92.9297ZM283.094 94.9297V122H287.094V94.9297H283.094ZM285.094 120H278.175V124H285.094V120ZM294.093 108.065L302.227 122.959L305.738 121.041L297.604 106.148L294.093 108.065ZM303.982 120H296.344V124H303.982V120ZM298.108 121.057L290.15 106.164L286.622 108.049L294.58 122.943L298.108 121.057ZM288.386 109.107H295.849V105.107H288.386V109.107Z" fill="black"/>
</g>
<g filter="url(#filter2_d_1_91)">
<path d="M228.346 565.5V466H288.346V565.5V567H289.846H313.484L259.811 626.794L202.515 567H226.846H228.346V565.5Z" fill="#5763AB" stroke="black" stroke-width="3"/>
<path d="M86.2326 124L88.5 125.5L92.5 134L97 141.5L99.5 146L101.733 148L103.233 150V152.5L106 153L107 155.5L109.233 157.5L110 159.5L112 160.5L114.5 162V164L117 166.5L119 168L121.5 171L126.233 175.5L136.733 182.5L141.5 186L146.5 188.5L153.5 192L157.5 195L161.5 197L165.5 198.5L168.5 199.5L172 201L176 202.5L180.5 204L184 205L187.5 206L191 207.5L193 208L236 214.5L252.5 215L263.5 214.364L273 214L302 209L319 203.5L337 199L351.5 191L369.5 180.5L386 168.5L396 158L402.5 150.5L408 143.5L413.5 134.5L420.5 122.5V142.5L421 155V178L420 206L419 228L416 245.5L403 312L392.5 346L378 378L372.5 388L368 397.5L354.5 417L339 434.5L322 450L302.5 462.5L291.5 467.5L279.5 471L269.5 474L257 475L241 473.5L225.5 470.5L210 464.5L195.5 456.5L182.733 447.5L173 438.5L164.233 430.5L157.233 421.5L154 417.5L144.733 406L141.733 399.5L136.233 392.5L131.733 384.5L129.733 379L126.233 373.5L123.233 365L119.733 357L115.233 345L110.233 331L106.733 319.5L100.733 296.5L98.5 287.5L96.5 278L95 270.5L94 263.5L93 256.5L92.5 253L92 250.5L90.5 241L89.5 232L88 218.5L87 204.5L85.5 174.5L85 146L86.2326 124Z" fill="#5763AB"/>
<path d="M87 120.5C134 243.5 363.5 248 420.5 119" stroke="black" stroke-width="3"/>
<path d="M85.7708 118C65.7709 594.5 441.771 594.5 421.271 118" stroke="black" stroke-width="3"/>
<rect x="220.5" y="234.5" width="66" height="208" rx="2.5" fill="black" stroke="white" stroke-width="5"/>
<path d="M229.863 467.607H286.863V468.892L286.5 484.5L230.344 476.497L229.844 473.997V471.997L229.863 467.607Z" fill="#5763AB"/>
</g>
<defs>
<filter id="filter0_d_1_91" x="418.5" y="591.5" width="58" height="62.6473" filterUnits="userSpaceOnUse" color-interpolation-filters="sRGB">
<feFlood flood-opacity="0" result="BackgroundImageFix"/>
<feColorMatrix in="SourceAlpha" type="matrix" values="0 0 0 0 0 0 0 0 0 0 0 0 0 0 0 0 0 0 127 0" result="hardAlpha"/>
<feOffset dx="-2" dy="4"/>
<feGaussianBlur stdDeviation="2"/>
<feComposite in2="hardAlpha" operator="out"/>
<feColorMatrix type="matrix" values="0 0 0 0 0 0 0 0 0 0 0 0 0 0 0 0 0 0 0.3 0"/>
<feBlend mode="normal" in2="BackgroundImageFix" result="effect1_dropShadow_1_91"/>
<feBlend mode="normal" in="SourceGraphic" in2="effect1_dropShadow_1_91" result="shape"/>
</filter>
<filter id="filter1_d_1_91" x="86.9263" y="50" width="330.014" height="154.634" filterUnits="userSpaceOnUse" color-interpolation-filters="sRGB">
<feFlood flood-opacity="0" result="BackgroundImageFix"/>
<feColorMatrix in="SourceAlpha" type="matrix" values="0 0 0 0 0 0 0 0 0 0 0 0 0 0 0 0 0 0 127 0" result="hardAlpha"/>
<feOffset dx="-2" dy="4"/>
<feGaussianBlur stdDeviation="2"/>
<feComposite in2="hardAlpha" operator="out"/>
<feColorMatrix type="matrix" values="0 0 0 0 0 0 0 0 0 0 0 0 0 0 0 0 0 0 0.3 0"/>
<feBlend mode="normal" in2="BackgroundImageFix" result="effect1_dropShadow_1_91"/>
<feBlend mode="normal" in="SourceGraphic" in2="effect1_dropShadow_1_91" result="shape"/>
</filter>
<filter id="filter2_d_1_91" x="77.5" y="117.936" width="348.08" height="519.064" filterUnits="userSpaceOnUse" color-interpolation-filters="sRGB">
<feFlood flood-opacity="0" result="BackgroundImageFix"/>
<feColorMatrix in="SourceAlpha" type="matrix" values="0 0 0 0 0 0 0 0 0 0 0 0 0 0 0 0 0 0 127 0" result="hardAlpha"/>
<feOffset dx="-2" dy="4"/>
<feGaussianBlur stdDeviation="2"/>
<feComposite in2="hardAlpha" operator="out"/>
<feColorMatrix type="matrix" values="0 0 0 0 0 0 0 0 0 0 0 0 0 0 0 0 0 0 0.3 0"/>
<feBlend mode="normal" in2="BackgroundImageFix" result="effect1_dropShadow_1_91"/>
<feBlend mode="normal" in="SourceGraphic" in2="effect1_dropShadow_1_91" result="shape"/>
</filter>
</defs>
</svg>
